<svg id="svg" version="1.1" xmlns="http://www.w3.org/2000/svg" xmlns:xlink="http://www.w3.org/1999/xlink" width="400" height="400" viewBox="0, 0, 400,400"><g id="svgg"><path id="path0" d="M126.926 66.402 C 125.239 67.084,125.200 67.565,125.200 87.574 L 125.200 106.800 168.500 106.802 C 213.667 106.805,213.799 106.809,215.888 108.567 C 218.335 110.626,218.800 112.266,218.800 118.838 L 218.800 124.800 282.330 124.800 L 345.861 124.800 346.730 123.874 L 347.600 122.948 347.600 95.519 C 347.600 69.107,347.572 68.054,346.835 67.144 L 346.071 66.200 236.935 66.124 C 174.539 66.081,127.426 66.200,126.926 66.402 M82.522 151.582 C 80.773 152.648,80.751 152.878,80.885 168.800 L 81.000 182.600 95.600 182.800 C 111.154 183.013,111.461 183.052,113.489 185.086 C 115.979 187.582,115.997 187.739,116.341 209.000 L 116.600 225.000 160.729 225.102 L 204.858 225.204 206.029 224.033 L 207.200 222.862 207.200 188.457 C 207.200 152.093,207.219 152.444,205.237 151.419 C 203.147 150.338,84.303 150.497,82.522 151.582 M26.946 217.668 C 25.252 218.488,25.200 219.154,25.200 239.837 L 25.200 259.636 26.182 260.618 L 27.164 261.600 62.400 261.600 L 97.636 261.600 98.629 260.608 L 99.621 259.615 99.511 239.185 L 99.400 218.754 98.400 217.986 C 97.238 217.093,28.762 216.788,26.946 217.668 " stroke="none" fill="#8c3cdb" fill-rule="evenodd"></path><path id="path1" d="M219.067 136.667 C 218.920 136.813,218.800 150.403,218.800 166.867 L 218.800 196.800 241.626 196.800 C 256.517 196.800,264.720 196.657,265.222 196.388 C 267.218 195.320,267.200 195.584,267.199 166.520 C 267.197 136.115,267.303 137.241,264.391 136.658 C 262.678 136.316,219.410 136.324,219.067 136.667 M288.904 136.677 C 286.741 137.106,286.800 136.256,286.800 166.860 L 286.800 195.142 287.854 195.971 C 289.513 197.276,344.887 197.276,346.546 195.971 L 347.600 195.142 347.600 166.815 C 347.600 139.523,347.572 138.454,346.835 137.544 L 346.071 136.600 317.935 136.549 C 302.461 136.521,289.397 136.579,288.904 136.677 M116.667 234.667 C 116.520 234.813,116.400 247.243,116.400 262.287 L 116.400 289.641 125.836 289.521 C 135.203 289.401,135.278 289.393,136.036 288.456 C 136.770 287.548,136.800 286.526,136.787 262.056 C 136.774 235.171,136.822 235.875,134.926 234.865 C 133.981 234.362,117.154 234.179,116.667 234.667 M149.700 235.196 L 148.400 235.988 148.400 261.965 L 148.400 287.942 149.454 288.771 C 151.111 290.075,201.289 290.075,202.946 288.771 L 204.000 287.942 204.000 262.404 C 204.000 234.968,204.053 235.855,202.371 234.985 C 200.344 233.937,151.444 234.132,149.700 235.196 M26.255 269.855 L 25.200 270.909 25.200 300.481 C 25.200 332.355,25.125 331.275,27.419 332.234 C 29.438 333.077,95.362 333.077,97.381 332.234 C 99.676 331.275,99.600 332.360,99.600 300.408 L 99.600 270.764 98.618 269.782 L 97.636 268.800 62.473 268.800 L 27.309 268.800 26.255 269.855 " stroke="none" fill="#135680" fill-rule="evenodd"></path><path id="path2" d="M93.387 25.221 C 93.244 25.453,92.918 25.567,92.663 25.476 C 92.409 25.385,91.728 25.548,91.151 25.839 C 90.574 26.130,89.989 26.255,89.851 26.117 C 89.713 25.979,89.600 26.077,89.600 26.333 C 89.600 26.590,89.329 26.800,88.999 26.800 C 88.270 26.800,83.200 31.938,83.200 32.677 C 83.200 32.964,83.059 33.200,82.887 33.200 C 82.715 33.200,82.534 33.695,82.484 34.300 C 82.434 34.905,82.215 35.460,81.997 35.533 C 81.778 35.607,81.600 36.342,81.600 37.167 C 81.600 37.992,81.465 38.802,81.300 38.967 C 80.874 39.393,80.904 37.054,80.850 73.000 L 80.800 106.000 78.624 106.000 C 77.427 106.000,76.336 106.180,76.200 106.400 C 76.064 106.620,75.333 106.800,74.576 106.800 C 73.819 106.800,73.200 106.980,73.200 107.200 C 73.200 107.420,72.964 107.600,72.675 107.600 C 71.671 107.600,69.200 110.431,69.200 111.581 C 69.200 112.005,69.020 112.464,68.800 112.600 C 68.555 112.751,68.400 115.937,68.400 120.824 L 68.400 128.800 143.342 128.800 L 218.284 128.800 218.539 126.100 C 219.526 115.651,218.622 110.585,215.360 108.288 L 213.781 107.176 157.591 107.088 L 101.400 107.000 101.297 78.889 C 101.197 51.442,101.214 50.742,101.996 49.207 C 102.950 47.337,104.886 45.705,107.037 44.956 C 109.002 44.272,365.378 44.117,365.800 44.800 C 365.936 45.020,366.389 45.200,366.807 45.200 C 367.950 45.200,370.754 48.071,371.049 49.544 C 371.189 50.244,371.460 50.914,371.652 51.032 C 372.207 51.375,372.101 211.715,371.544 213.081 C 370.241 216.276,369.835 216.894,368.477 217.743 C 367.664 218.251,366.550 218.830,366.000 219.029 C 365.426 219.236,333.902 219.477,292.000 219.595 L 219.000 219.800 218.896 236.100 L 218.791 252.400 246.547 252.400 C 270.730 252.400,274.366 252.477,274.800 253.000 C 275.409 253.733,377.600 253.932,377.600 253.200 C 377.600 252.980,378.399 252.800,379.376 252.800 C 380.353 252.800,381.264 252.620,381.400 252.400 C 381.536 252.180,381.997 252.000,382.424 252.000 C 382.851 252.000,383.200 251.820,383.200 251.600 C 383.200 251.380,383.460 251.200,383.778 251.200 C 384.096 251.200,385.536 250.020,386.978 248.578 C 388.420 247.136,389.600 245.696,389.600 245.378 C 389.600 245.060,389.810 244.800,390.067 244.800 C 390.323 244.800,390.421 244.687,390.283 244.549 C 390.145 244.411,390.340 243.736,390.716 243.049 C 391.356 241.880,391.400 235.260,391.400 139.400 C 391.400 42.391,391.353 35.620,390.677 34.944 C 390.525 34.791,390.400 34.337,390.400 33.933 C 390.400 33.530,390.220 33.200,390.000 33.200 C 389.780 33.200,389.600 32.880,389.600 32.488 C 389.600 32.097,389.240 31.517,388.800 31.200 C 388.360 30.883,388.000 30.402,388.000 30.132 C 388.000 29.862,387.325 29.138,386.500 28.523 C 385.675 27.908,384.910 27.313,384.800 27.202 C 384.690 27.090,384.060 26.753,383.400 26.453 C 382.740 26.152,381.892 25.751,381.516 25.560 C 381.140 25.369,380.573 25.312,380.256 25.434 C 379.940 25.555,379.562 25.462,379.417 25.227 C 379.047 24.628,93.757 24.622,93.387 25.221 M175.925 116.416 C 177.577 117.955,176.480 121.200,174.306 121.200 C 173.898 121.200,173.122 120.758,172.582 120.218 C 170.187 117.823,173.450 114.110,175.925 116.416 M163.434 116.306 C 164.770 117.210,164.794 119.647,163.475 120.486 C 162.440 121.144,125.451 120.851,124.489 120.177 C 123.426 119.433,123.317 117.776,124.262 116.731 C 124.956 115.965,162.331 115.559,163.434 116.306 M12.602 183.306 C 10.761 184.335,10.000 184.984,10.000 185.522 C 10.000 185.731,9.732 186.124,9.404 186.396 C 9.077 186.668,8.900 187.038,9.011 187.218 C 9.122 187.398,9.030 187.658,8.807 187.796 C 8.559 187.949,8.400 190.536,8.400 194.425 L 8.400 200.803 62.100 200.701 L 115.800 200.600 115.793 194.400 L 115.786 188.200 114.509 186.352 C 111.925 182.610,112.456 182.686,89.200 182.740 C 78.090 182.766,56.670 182.703,41.600 182.600 L 14.200 182.412 12.602 183.306 M88.311 190.623 C 89.927 191.755,88.981 194.400,86.961 194.400 C 85.141 194.400,84.279 192.121,85.600 190.800 C 86.563 189.837,87.136 189.800,88.311 190.623 M78.571 191.029 C 79.414 191.871,79.363 192.637,78.400 193.600 C 77.481 194.519,48.432 194.874,46.774 193.986 C 45.884 193.510,45.676 190.997,46.500 190.665 C 47.968 190.072,77.955 190.412,78.571 191.029 M240.870 228.037 C 249.415 234.037,242.387 247.032,232.968 242.646 C 227.199 239.960,226.298 232.889,231.192 228.699 C 233.770 226.493,238.236 226.187,240.870 228.037 M219.052 292.100 C 218.919 292.595,218.808 297.164,218.805 302.253 L 218.800 311.507 217.900 311.748 C 217.405 311.881,194.365 311.992,166.700 311.995 L 116.400 312.000 116.400 328.000 L 116.400 344.000 165.000 344.000 C 197.133 344.000,213.600 343.864,213.600 343.600 C 213.600 343.380,213.960 343.200,214.400 343.200 C 214.840 343.200,215.200 343.020,215.200 342.800 C 215.200 342.580,215.494 342.400,215.853 342.400 C 216.584 342.400,218.399 340.475,218.400 339.700 C 218.400 339.425,218.580 339.200,218.800 339.200 C 219.059 339.200,219.200 334.533,219.200 326.000 L 219.200 312.800 272.200 312.800 L 325.200 312.800 325.200 305.024 C 325.200 300.188,325.046 297.152,324.793 296.996 C 324.570 296.858,324.491 296.576,324.619 296.370 C 325.027 295.709,322.970 293.082,321.114 291.895 C 320.098 291.244,316.803 291.200,269.661 291.200 L 219.293 291.200 219.052 292.100 M160.889 321.111 C 162.302 322.524,162.260 329.446,160.830 330.968 L 159.861 332.000 144.153 332.000 L 128.445 332.000 127.322 331.035 C 126.233 330.097,126.200 329.954,126.200 326.096 C 126.200 319.681,125.173 320.017,144.489 320.118 L 159.979 320.200 160.889 321.111 M62.300 349.100 L 8.400 349.203 8.400 359.241 C 8.400 367.867,8.496 369.484,9.083 370.740 C 9.749 372.165,11.728 374.350,12.442 374.450 C 12.639 374.478,12.965 374.523,13.167 374.550 C 13.368 374.578,13.668 374.735,13.833 374.900 C 14.306 375.373,111.200 375.273,111.200 374.800 C 111.200 374.580,111.335 374.421,111.500 374.447 C 112.342 374.580,112.896 374.277,114.202 372.971 C 114.989 372.185,115.737 371.015,115.866 370.371 C 115.995 369.727,116.258 369.200,116.450 369.200 C 116.642 369.200,116.800 364.610,116.800 359.000 C 116.800 353.390,116.665 348.844,116.500 348.899 C 116.335 348.953,91.945 349.043,62.300 349.100 M75.171 356.185 C 77.697 357.491,77.526 363.750,74.926 365.135 C 73.493 365.898,51.500 365.776,49.992 364.996 C 47.558 363.737,47.071 358.868,49.169 356.769 L 50.338 355.600 62.189 355.600 C 71.807 355.600,74.253 355.710,75.171 356.185 " stroke="none" fill="#0f524f" fill-rule="evenodd"></path><path id="path3" d="M231.400 45.199 C 94.713 45.420,106.008 45.202,103.732 47.662 C 101.554 50.016,101.585 49.528,101.697 79.200 L 101.800 106.600 113.172 106.706 C 122.004 106.789,124.617 106.700,124.866 106.306 C 125.043 106.028,125.191 97.315,125.194 86.944 C 125.200 68.980,125.236 68.044,125.965 67.144 L 126.729 66.200 236.323 66.200 C 343.533 66.200,345.934 66.217,346.758 66.962 C 347.599 67.723,347.600 67.772,347.600 95.392 L 347.600 123.061 346.676 123.929 L 345.751 124.798 282.376 124.899 L 219.000 125.000 218.800 127.200 L 218.600 129.400 144.000 129.600 L 69.400 129.800 69.400 156.200 L 69.400 182.600 75.000 182.600 L 80.600 182.600 80.800 167.662 L 81.000 152.723 82.200 151.764 L 83.400 150.804 144.131 150.802 L 204.862 150.800 206.031 151.969 L 207.200 153.138 207.200 188.000 L 207.200 222.862 206.029 224.033 L 204.858 225.203 160.329 225.102 L 115.800 225.000 115.694 213.038 L 115.588 201.076 109.894 201.337 C 106.762 201.480,82.825 201.598,56.700 201.599 L 9.200 201.600 9.200 271.000 C 9.200 317.000,9.065 340.400,8.800 340.400 C 8.560 340.400,8.400 342.000,8.400 344.401 L 8.400 348.403 62.077 348.301 L 115.753 348.200 115.777 329.800 L 115.800 311.400 167.041 311.298 L 218.281 311.197 218.574 293.921 C 218.734 284.419,218.735 264.108,218.574 248.784 C 218.414 233.460,218.402 220.447,218.547 219.867 L 218.812 218.812 292.506 218.706 L 366.200 218.600 367.501 217.672 C 368.216 217.162,369.296 216.096,369.901 215.303 L 371.000 213.862 371.000 132.031 L 371.000 50.200 370.013 48.800 C 368.754 47.013,368.420 46.699,367.200 46.150 C 364.518 44.942,363.720 44.806,359.881 44.899 C 357.637 44.953,299.820 45.088,231.400 45.199 M264.391 136.658 C 267.303 137.241,267.197 136.115,267.199 166.520 C 267.200 195.584,267.218 195.320,265.222 196.388 C 264.720 196.657,256.517 196.800,241.626 196.800 L 218.800 196.800 218.800 166.867 C 218.800 150.403,218.920 136.813,219.067 136.667 C 219.410 136.324,262.678 136.316,264.391 136.658 M346.835 137.544 C 347.572 138.454,347.600 139.523,347.600 166.815 L 347.600 195.142 346.546 195.971 C 344.887 197.276,289.513 197.276,287.854 195.971 L 286.800 195.142 286.800 166.860 C 286.800 136.256,286.741 137.106,288.904 136.677 C 289.397 136.579,302.461 136.521,317.935 136.549 L 346.071 136.600 346.835 137.544 M98.542 218.181 L 99.600 219.162 99.600 239.327 C 99.600 259.122,99.585 259.511,98.771 260.546 L 97.942 261.600 62.553 261.600 L 27.164 261.600 26.182 260.618 L 25.200 259.636 25.200 239.473 L 25.200 219.309 26.255 218.255 L 27.309 217.200 62.396 217.200 L 97.483 217.200 98.542 218.181 M134.926 234.865 C 136.822 235.875,136.774 235.171,136.787 262.056 C 136.800 286.524,136.770 287.548,136.036 288.456 C 135.101 289.612,116.225 290.369,115.804 289.267 C 115.513 288.506,115.551 235.794,115.843 235.033 C 116.153 234.225,133.440 234.074,134.926 234.865 M202.371 234.985 C 204.053 235.855,204.000 234.968,204.000 262.404 L 204.000 287.942 202.946 288.771 C 201.289 290.075,151.111 290.075,149.454 288.771 L 148.400 287.942 148.400 261.965 L 148.400 235.988 149.700 235.196 C 151.444 234.132,200.344 233.937,202.371 234.985 M98.618 269.782 L 99.600 270.764 99.600 300.408 C 99.600 332.360,99.676 331.275,97.381 332.234 C 95.362 333.077,29.438 333.077,27.419 332.234 C 25.125 331.275,25.200 332.355,25.200 300.481 L 25.200 270.909 26.255 269.855 L 27.309 268.800 62.473 268.800 L 97.636 268.800 98.618 269.782 " stroke="none" fill="#eeeeef" fill-rule="evenodd"></path><path id="path4" d="M106.857 44.982 C 104.892 45.694,102.910 47.416,101.996 49.207 C 101.214 50.742,101.197 51.442,101.297 78.889 L 101.400 107.000 156.200 107.003 C 197.686 107.004,200.607 106.980,168.222 106.901 C 134.612 106.819,125.377 106.690,125.129 106.298 C 124.878 105.903,124.811 105.905,124.806 106.306 C 124.801 106.705,122.361 106.790,113.300 106.706 L 101.800 106.600 101.697 79.200 C 101.577 47.259,101.434 48.346,106.058 45.974 C 107.541 45.214,363.111 44.657,365.400 45.410 C 367.870 46.221,368.546 46.718,370.013 48.800 L 371.000 50.200 371.000 132.000 L 371.000 213.800 370.072 215.101 C 369.562 215.816,368.496 216.896,367.703 217.501 L 366.262 218.600 292.537 218.706 L 218.812 218.812 218.547 219.867 C 218.402 220.447,218.414 233.460,218.574 248.784 C 218.735 264.108,218.734 284.419,218.574 293.921 L 218.281 311.197 167.041 311.298 L 115.800 311.400 115.777 329.800 L 115.753 348.200 62.077 348.301 C 26.757 348.368,8.400 348.539,8.400 348.801 C 8.400 349.212,115.004 349.404,116.067 348.996 C 116.503 348.828,116.574 345.445,116.458 330.396 L 116.315 312.000 166.658 311.995 C 194.346 311.992,217.405 311.881,217.900 311.748 L 218.800 311.507 218.805 302.253 C 218.808 297.164,218.919 292.595,219.052 292.100 L 219.293 291.200 251.247 291.200 L 283.200 291.200 283.200 289.424 C 283.200 288.447,283.020 287.536,282.800 287.400 C 282.580 287.264,282.400 286.443,282.400 285.576 C 282.400 284.709,282.220 284.000,282.000 284.000 C 281.780 284.000,281.600 283.201,281.600 282.224 C 281.600 281.247,281.420 280.336,281.200 280.200 C 280.980 280.064,280.800 279.153,280.800 278.176 C 280.800 277.199,280.620 276.400,280.400 276.400 C 280.180 276.400,280.000 275.691,280.000 274.824 C 280.000 273.957,279.820 273.136,279.600 273.000 C 279.380 272.864,279.200 271.953,279.200 270.976 C 279.200 269.999,279.020 269.200,278.800 269.200 C 278.580 269.200,278.400 268.401,278.400 267.424 C 278.400 266.447,278.220 265.536,278.000 265.400 C 277.780 265.264,277.600 264.454,277.600 263.600 C 277.600 262.746,277.420 261.936,277.200 261.800 C 276.980 261.664,276.800 260.843,276.800 259.976 C 276.800 259.109,276.620 258.400,276.400 258.400 C 276.180 258.400,276.000 257.500,276.000 256.400 C 276.000 255.300,275.863 254.400,275.695 254.400 C 275.527 254.400,275.212 253.995,274.995 253.500 L 274.600 252.600 246.696 252.497 L 218.791 252.395 218.896 236.097 L 219.000 219.800 292.000 219.595 C 333.902 219.477,365.426 219.236,366.000 219.029 C 366.550 218.830,367.664 218.251,368.477 217.743 C 369.835 216.894,370.241 216.276,371.544 213.081 C 372.101 211.715,372.207 51.375,371.652 51.032 C 371.460 50.914,371.189 50.244,371.049 49.544 C 370.754 48.071,367.950 45.200,366.807 45.200 C 366.389 45.200,365.936 45.020,365.800 44.800 C 365.410 44.169,108.604 44.349,106.857 44.982 M172.582 116.582 C 170.187 118.977,173.450 122.690,175.925 120.384 C 177.577 118.845,176.480 115.600,174.306 115.600 C 173.898 115.600,173.122 116.042,172.582 116.582 M124.262 116.731 C 123.317 117.776,123.426 119.433,124.489 120.177 C 125.451 120.851,162.440 121.144,163.475 120.486 C 164.794 119.647,164.770 117.210,163.434 116.306 C 162.331 115.559,124.956 115.965,124.262 116.731 M218.667 125.067 C 218.520 125.213,218.400 126.113,218.400 127.067 L 218.400 128.800 143.400 128.800 L 68.400 128.800 68.400 155.757 C 68.400 179.970,68.464 182.739,69.033 182.957 C 69.869 183.278,81.806 183.272,81.484 182.951 C 81.347 182.814,78.572 182.679,75.318 182.651 L 69.400 182.600 69.400 156.200 L 69.400 129.800 144.000 129.600 L 218.600 129.400 218.805 127.100 C 218.917 125.835,218.992 124.800,218.971 124.800 C 218.950 124.800,218.813 124.920,218.667 125.067 M85.600 190.800 C 84.637 191.763,84.600 192.336,85.423 193.511 C 86.178 194.589,87.638 194.663,88.538 193.669 C 90.431 191.577,87.593 188.807,85.600 190.800 M46.500 190.665 C 45.676 190.997,45.884 193.510,46.774 193.986 C 48.432 194.874,77.481 194.519,78.400 193.600 C 79.363 192.637,79.414 191.871,78.571 191.029 C 77.955 190.412,47.968 190.072,46.500 190.665 M62.100 200.701 L 8.400 200.803 8.400 270.601 C 8.400 316.867,8.535 340.400,8.800 340.400 C 9.065 340.400,9.200 317.000,9.200 271.000 L 9.200 201.600 56.700 201.599 C 82.825 201.598,106.762 201.480,109.894 201.337 L 115.588 201.076 115.694 213.005 C 115.761 220.506,115.948 224.983,116.200 225.067 C 116.664 225.222,116.554 201.144,116.088 200.808 C 115.930 200.694,91.635 200.646,62.100 200.701 M233.747 227.053 C 232.365 227.361,229.550 230.025,228.754 231.778 C 224.924 240.211,236.343 247.674,242.555 240.797 C 248.276 234.465,242.301 225.143,233.747 227.053 M115.843 235.033 C 115.427 236.116,115.576 288.944,115.997 289.600 C 116.246 289.988,116.420 280.345,116.491 262.300 C 116.592 236.487,116.516 233.279,115.843 235.033 M128.186 320.374 C 125.758 321.379,125.128 329.147,127.322 331.035 L 128.445 332.000 144.153 332.000 L 159.861 332.000 160.830 330.968 C 162.260 329.446,162.302 322.524,160.889 321.111 L 159.979 320.200 144.489 320.118 C 135.970 320.073,128.634 320.188,128.186 320.374 M49.169 356.769 C 48.131 357.808,48.000 358.213,48.000 360.396 C 48.000 365.523,48.217 365.600,62.606 365.600 C 76.722 365.600,76.764 365.585,76.787 360.733 C 76.812 355.493,77.116 355.600,62.189 355.600 L 50.338 355.600 49.169 356.769 " stroke="none" fill="#909096" fill-rule="evenodd"></path></g></svg>