<svg id="svg" version="1.1" xmlns="http://www.w3.org/2000/svg" xmlns:xlink="http://www.w3.org/1999/xlink" width="400" height="433.59375" viewBox="0, 0, 400,433.59375"><g id="svgg"><path id="path0" d="M191.700 0.270 C 190.545 0.365,189.600 0.612,189.600 0.821 C 189.600 1.029,189.060 1.200,188.400 1.200 C 187.740 1.200,187.200 1.380,187.200 1.600 C 187.200 1.820,186.660 2.000,186.000 2.000 C 185.340 2.000,184.800 2.180,184.800 2.400 C 184.800 2.620,184.440 2.800,184.000 2.800 C 183.560 2.800,183.200 2.980,183.200 3.200 C 183.200 3.420,182.840 3.600,182.400 3.600 C 181.960 3.600,181.600 3.780,181.600 4.000 C 181.600 4.220,181.280 4.400,180.888 4.400 C 180.497 4.400,179.917 4.760,179.600 5.200 C 179.283 5.640,178.718 6.000,178.345 6.000 C 177.972 6.000,177.607 6.135,177.533 6.300 C 177.356 6.699,175.551 7.764,172.500 9.268 C 171.125 9.946,170.000 10.669,170.000 10.874 C 170.000 11.079,169.840 11.149,169.645 11.028 C 169.450 10.907,169.068 11.077,168.796 11.404 C 168.524 11.732,167.979 12.000,167.584 12.000 C 167.190 12.000,166.807 12.135,166.733 12.300 C 166.566 12.676,164.436 13.975,163.500 14.271 C 163.115 14.393,162.800 14.652,162.800 14.847 C 162.800 15.041,162.440 15.200,162.000 15.200 C 161.560 15.200,161.200 15.380,161.200 15.600 C 161.200 15.820,160.930 16.000,160.600 16.000 C 160.270 16.000,160.000 16.180,160.000 16.400 C 160.000 16.620,159.730 16.800,159.400 16.800 C 159.070 16.800,158.800 16.980,158.800 17.200 C 158.800 17.420,158.530 17.600,158.200 17.600 C 157.870 17.600,157.600 17.780,157.600 18.000 C 157.600 18.220,157.240 18.400,156.800 18.400 C 156.360 18.400,156.000 18.552,156.000 18.737 C 156.000 18.923,155.145 19.508,154.100 20.037 C 153.055 20.567,152.140 21.135,152.067 21.300 C 151.993 21.465,151.588 21.600,151.167 21.600 C 150.745 21.600,150.400 21.780,150.400 22.000 C 150.400 22.220,150.106 22.400,149.747 22.400 C 149.388 22.400,148.803 22.716,148.447 23.103 C 148.091 23.489,147.260 24.052,146.600 24.354 C 145.940 24.655,144.770 25.250,144.000 25.677 C 143.230 26.103,142.285 26.551,141.900 26.672 C 141.515 26.794,141.200 27.052,141.200 27.247 C 141.200 27.441,140.880 27.600,140.488 27.600 C 140.097 27.600,139.517 27.960,139.200 28.400 C 138.883 28.840,138.380 29.200,138.083 29.200 C 137.786 29.200,137.271 29.472,136.939 29.804 C 136.607 30.136,136.170 30.305,135.968 30.180 C 135.765 30.055,135.600 30.143,135.600 30.376 C 135.600 30.609,135.414 30.800,135.186 30.800 C 134.958 30.800,134.303 31.107,133.730 31.483 L 132.687 32.166 133.818 32.468 C 134.440 32.635,151.970 32.884,172.774 33.022 L 210.600 33.273 216.800 34.873 C 220.210 35.753,224.710 36.928,226.800 37.485 C 228.890 38.041,231.230 38.576,232.000 38.673 C 232.770 38.770,233.760 39.005,234.200 39.195 C 234.640 39.384,235.540 39.651,236.200 39.788 C 236.860 39.924,238.075 40.208,238.900 40.418 C 239.725 40.628,241.165 40.988,242.100 41.218 C 243.035 41.448,244.520 41.821,245.400 42.047 C 246.280 42.273,247.587 42.555,248.304 42.673 C 249.021 42.792,249.706 43.049,249.827 43.244 C 249.948 43.440,250.412 43.600,250.857 43.600 C 251.302 43.600,251.596 43.812,251.509 44.072 C 251.270 44.789,249.248 45.381,238.000 48.031 C 234.150 48.937,228.840 50.216,226.200 50.872 C 223.560 51.529,220.725 52.231,219.900 52.433 C 219.075 52.635,217.635 52.990,216.700 53.222 C 215.765 53.454,214.190 53.839,213.200 54.078 C 211.954 54.378,201.432 54.464,179.000 54.356 C 161.180 54.270,134.990 54.200,120.800 54.200 L 95.000 54.200 91.200 56.163 C 89.110 57.242,87.340 58.277,87.267 58.463 C 87.193 58.648,86.803 58.800,86.400 58.800 C 85.997 58.800,85.607 58.935,85.533 59.100 C 85.460 59.265,84.590 59.840,83.600 60.378 C 82.610 60.915,81.560 61.592,81.268 61.881 C 80.975 62.171,80.570 62.305,80.368 62.180 C 80.165 62.055,80.000 62.143,80.000 62.376 C 80.000 62.609,79.764 62.800,79.475 62.800 C 79.187 62.800,78.602 63.125,78.175 63.522 C 77.749 63.920,76.815 64.503,76.100 64.820 C 75.385 65.136,74.800 65.531,74.800 65.698 C 74.800 65.864,74.429 66.000,73.976 66.000 C 73.523 66.000,73.245 66.150,73.358 66.332 C 73.471 66.515,72.942 66.909,72.182 67.207 C 71.422 67.505,70.800 67.896,70.800 68.075 C 70.800 68.254,70.440 68.400,70.000 68.400 C 69.560 68.400,69.200 68.580,69.200 68.800 C 69.200 69.020,68.964 69.200,68.675 69.200 C 68.387 69.200,67.764 69.560,67.292 70.000 C 66.820 70.440,66.156 70.800,65.817 70.800 C 65.478 70.800,65.200 70.980,65.200 71.200 C 65.200 71.420,64.840 71.600,64.400 71.600 C 63.960 71.600,63.600 71.780,63.600 72.000 C 63.600 72.330,330.680 72.734,334.800 72.410 C 336.100 72.308,336.869 71.600,335.680 71.600 C 335.196 71.600,334.800 71.420,334.800 71.200 C 334.800 70.980,334.564 70.800,334.275 70.800 C 333.987 70.800,333.364 70.440,332.892 70.000 C 332.420 69.560,331.756 69.200,331.417 69.200 C 331.078 69.200,330.800 69.020,330.800 68.800 C 330.800 68.580,330.522 68.400,330.183 68.400 C 329.844 68.400,329.180 68.040,328.708 67.600 C 328.236 67.160,327.613 66.800,327.325 66.800 C 327.036 66.800,326.800 66.620,326.800 66.400 C 326.800 66.180,326.440 66.000,326.000 66.000 C 325.560 66.000,325.200 65.820,325.200 65.600 C 325.200 65.380,325.007 65.200,324.772 65.200 C 324.537 65.200,323.559 64.660,322.600 64.000 C 321.641 63.340,320.663 62.800,320.428 62.800 C 320.193 62.800,320.000 62.620,320.000 62.400 C 320.000 62.180,319.722 62.000,319.383 62.000 C 319.044 62.000,318.380 61.640,317.908 61.200 C 317.436 60.760,316.813 60.400,316.525 60.400 C 316.236 60.400,316.000 60.220,316.000 60.000 C 316.000 59.780,315.640 59.600,315.200 59.600 C 314.760 59.600,314.400 59.420,314.400 59.200 C 314.400 58.980,314.055 58.800,313.633 58.800 C 313.212 58.800,312.807 58.665,312.733 58.500 C 312.660 58.335,311.790 57.792,310.800 57.292 C 309.810 56.793,308.100 55.840,307.000 55.175 C 305.900 54.509,304.685 53.862,304.300 53.736 C 303.915 53.610,303.600 53.348,303.600 53.153 C 303.600 52.959,303.330 52.800,303.000 52.800 C 302.670 52.800,302.400 52.620,302.400 52.400 C 302.400 52.180,302.130 52.000,301.800 52.000 C 301.470 52.000,301.200 51.820,301.200 51.600 C 301.200 51.380,300.840 51.200,300.400 51.200 C 299.960 51.200,299.600 51.020,299.600 50.800 C 299.600 50.580,299.322 50.400,298.983 50.400 C 298.644 50.400,297.980 50.040,297.508 49.600 C 297.036 49.160,296.413 48.800,296.125 48.800 C 295.836 48.800,295.600 48.620,295.600 48.400 C 295.600 48.180,295.240 48.000,294.800 48.000 C 294.360 48.000,294.000 47.820,294.000 47.600 C 294.000 47.380,293.764 47.200,293.475 47.200 C 293.187 47.200,292.576 46.851,292.118 46.424 C 291.660 45.997,291.202 45.732,291.100 45.834 C 290.998 45.936,290.686 45.745,290.408 45.410 C 290.130 45.074,289.592 44.800,289.213 44.800 C 288.834 44.800,288.218 44.462,287.844 44.049 C 287.470 43.636,285.777 42.608,284.082 41.765 C 282.387 40.921,280.940 40.089,280.867 39.916 C 280.793 39.742,280.388 39.600,279.967 39.600 C 279.545 39.600,279.200 39.420,279.200 39.200 C 279.200 38.980,278.880 38.800,278.488 38.800 C 278.097 38.800,277.517 38.440,277.200 38.000 C 276.883 37.560,276.337 37.200,275.987 37.200 C 275.637 37.200,274.964 36.840,274.492 36.400 C 274.020 35.960,273.438 35.600,273.200 35.600 C 272.962 35.600,272.380 35.240,271.908 34.800 C 271.436 34.360,270.813 34.000,270.525 34.000 C 270.236 34.000,270.000 33.820,270.000 33.600 C 270.000 33.380,269.640 33.200,269.200 33.200 C 268.760 33.200,268.400 33.020,268.400 32.800 C 268.400 32.580,268.164 32.400,267.875 32.400 C 267.587 32.400,266.964 32.040,266.492 31.600 C 266.020 31.160,265.356 30.800,265.017 30.800 C 264.678 30.800,264.400 30.620,264.400 30.400 C 264.400 30.180,264.123 30.000,263.784 30.000 C 263.159 30.000,260.711 28.450,260.467 27.900 C 260.393 27.735,259.988 27.600,259.567 27.600 C 259.145 27.600,258.799 27.465,258.797 27.300 C 258.795 27.135,258.390 26.801,257.897 26.558 C 253.785 24.533,250.870 22.863,251.081 22.653 C 251.220 22.514,251.031 22.400,250.661 22.400 C 249.892 22.400,248.603 21.718,247.445 20.700 C 247.007 20.315,246.312 20.000,245.901 20.000 C 245.489 20.000,245.264 19.820,245.400 19.600 C 245.536 19.380,245.277 19.200,244.824 19.200 C 244.371 19.200,244.000 19.020,244.000 18.800 C 244.000 18.580,243.722 18.400,243.383 18.400 C 243.044 18.400,242.380 18.040,241.908 17.600 C 241.436 17.160,240.813 16.800,240.525 16.800 C 240.236 16.800,240.000 16.620,240.000 16.400 C 240.000 16.180,239.730 16.000,239.400 16.000 C 239.070 16.000,238.800 15.820,238.800 15.600 C 238.800 15.380,238.522 15.200,238.183 15.200 C 237.844 15.200,237.180 14.840,236.708 14.400 C 236.236 13.960,235.613 13.600,235.325 13.600 C 235.036 13.600,234.800 13.409,234.800 13.176 C 234.800 12.943,234.635 12.855,234.432 12.980 C 234.230 13.105,233.793 12.936,233.461 12.604 C 233.129 12.272,232.666 12.000,232.433 12.000 C 232.200 12.000,231.641 11.685,231.192 11.300 C 230.742 10.915,230.245 10.587,230.087 10.571 C 229.469 10.510,227.600 9.455,227.600 9.168 C 227.600 9.000,227.060 8.745,226.400 8.600 C 225.740 8.455,225.200 8.204,225.200 8.043 C 225.200 7.881,224.570 7.502,223.800 7.200 C 223.030 6.898,222.400 6.504,222.400 6.325 C 222.400 6.146,222.130 6.000,221.800 6.000 C 221.470 6.000,221.200 5.820,221.200 5.600 C 221.200 5.380,220.930 5.200,220.600 5.200 C 220.270 5.200,220.000 5.020,220.000 4.800 C 220.000 4.580,219.640 4.400,219.200 4.400 C 218.760 4.400,218.400 4.220,218.400 4.000 C 218.400 3.780,218.040 3.600,217.600 3.600 C 217.160 3.600,216.800 3.420,216.800 3.200 C 216.800 2.980,216.440 2.800,216.000 2.800 C 215.560 2.800,215.200 2.620,215.200 2.400 C 215.200 2.180,214.660 2.000,214.000 2.000 C 213.340 2.000,212.800 1.820,212.800 1.600 C 212.800 1.380,212.260 1.200,211.600 1.200 C 210.940 1.200,210.400 1.050,210.400 0.867 C 210.400 0.352,196.233 -0.100,191.700 0.270 M16.337 101.316 C 15.771 101.802,15.266 102.380,15.214 102.600 C 15.162 102.820,14.945 102.951,14.730 102.890 C 14.516 102.830,14.440 102.941,14.562 103.138 C 14.684 103.336,14.472 103.856,14.092 104.295 C 12.629 105.983,11.404 107.738,11.487 108.024 C 11.535 108.189,11.310 108.543,10.987 108.811 C 10.664 109.079,10.400 109.636,10.400 110.049 C 10.400 110.462,10.220 110.800,10.000 110.800 C 9.780 110.800,9.638 110.935,9.685 111.100 C 9.732 111.265,9.552 111.792,9.286 112.271 C 9.020 112.750,8.911 113.425,9.044 113.771 C 9.177 114.117,9.086 114.400,8.843 114.400 C 8.599 114.400,8.400 114.940,8.400 115.600 C 8.400 116.260,8.220 116.800,8.000 116.800 C 7.780 116.800,7.600 117.689,7.600 118.776 C 7.600 119.863,7.420 120.864,7.200 121.000 C 6.645 121.343,6.645 312.400,7.200 312.400 C 7.420 312.400,7.600 313.300,7.600 314.400 C 7.600 315.500,7.780 316.400,8.000 316.400 C 8.220 316.400,8.400 316.929,8.400 317.576 C 8.400 318.223,8.583 318.866,8.807 319.004 C 9.030 319.142,9.112 319.419,8.988 319.619 C 8.864 319.820,8.990 320.392,9.266 320.892 C 9.543 321.391,9.732 321.935,9.685 322.100 C 9.638 322.265,9.760 322.400,9.957 322.400 C 10.153 322.400,10.421 322.828,10.552 323.352 C 10.917 324.804,10.554 324.789,43.700 324.795 L 74.800 324.800 74.800 321.000 L 74.800 317.200 52.300 317.196 C 27.838 317.191,27.617 317.173,24.206 314.922 C 22.019 313.479,20.537 311.829,19.268 309.423 L 18.200 307.400 18.000 204.133 C 17.890 147.337,17.702 100.769,17.583 100.649 C 17.463 100.530,16.903 100.830,16.337 101.316 M382.304 100.500 C 382.251 100.555,382.116 147.130,382.004 204.000 L 381.800 307.400 380.885 309.238 C 379.153 312.718,375.912 315.459,372.194 316.586 C 370.517 317.095,366.627 317.192,347.700 317.196 L 325.200 317.200 325.200 321.000 L 325.200 324.800 356.381 324.800 C 377.420 324.800,387.864 324.663,388.489 324.378 C 389.536 323.901,391.299 320.324,390.944 319.398 C 390.818 319.069,390.914 318.800,391.157 318.800 C 391.401 318.800,391.600 318.271,391.600 317.624 C 391.600 316.977,391.780 316.336,392.000 316.200 C 392.220 316.064,392.400 315.164,392.400 314.200 C 392.400 313.236,392.580 312.336,392.800 312.200 C 393.354 311.857,393.354 121.343,392.800 121.000 C 392.580 120.864,392.400 119.863,392.400 118.776 C 392.400 117.689,392.220 116.800,392.000 116.800 C 391.780 116.800,391.600 116.260,391.600 115.600 C 391.600 114.940,391.401 114.400,391.157 114.400 C 390.914 114.400,390.821 114.122,390.951 113.783 C 391.163 113.231,389.814 109.702,389.200 109.200 C 389.065 109.090,388.721 108.422,388.435 107.715 C 388.149 107.008,387.394 105.885,386.758 105.219 C 386.121 104.552,385.600 103.820,385.600 103.590 C 385.600 102.873,382.667 100.123,382.304 100.500 M80.993 113.700 C 80.894 113.975,80.764 116.090,80.706 118.400 L 80.600 122.600 76.082 122.713 L 71.564 122.827 71.682 125.513 L 71.800 128.200 77.400 128.200 L 83.000 128.200 83.200 126.400 C 83.394 124.650,83.442 124.597,84.900 124.476 L 86.400 124.352 86.400 118.776 L 86.400 113.200 83.787 113.200 C 82.061 113.200,81.113 113.370,80.993 113.700 M168.201 113.682 C 168.097 113.967,167.964 116.090,167.906 118.400 L 167.800 122.600 164.482 122.716 L 161.164 122.833 161.282 125.516 L 161.400 128.200 167.000 128.200 L 172.600 128.200 172.730 126.600 C 172.801 125.720,173.121 124.710,173.442 124.355 C 173.902 123.845,174.001 122.627,173.912 118.555 L 173.800 113.400 171.095 113.282 C 169.155 113.197,168.336 113.310,168.201 113.682 M317.775 113.722 C 317.664 114.009,317.625 116.484,317.687 119.222 L 317.800 124.200 320.200 124.400 L 322.600 124.600 322.722 126.500 L 322.844 128.400 327.579 128.400 C 332.960 128.400,332.800 128.505,332.800 124.980 L 332.800 122.825 328.100 122.713 L 323.400 122.600 323.287 117.900 L 323.175 113.200 320.575 113.200 C 318.805 113.200,317.911 113.367,317.775 113.722 M89.682 125.500 L 89.800 128.200 95.400 128.200 L 101.000 128.200 101.118 125.500 L 101.237 122.800 95.400 122.800 L 89.563 122.800 89.682 125.500 M107.200 125.120 C 107.200 128.352,107.291 128.400,113.437 128.400 C 119.429 128.400,119.200 128.536,119.200 124.967 L 119.200 122.800 113.200 122.800 L 107.200 122.800 107.200 125.120 M125.200 125.151 C 125.200 128.383,125.325 128.446,131.456 128.312 L 136.600 128.200 136.718 125.500 L 136.837 122.800 131.018 122.800 L 125.200 122.800 125.200 125.151 M143.282 125.500 L 143.400 128.200 149.000 128.200 L 154.600 128.200 154.718 125.500 L 154.837 122.800 149.000 122.800 L 143.163 122.800 143.282 125.500 M179.282 125.500 L 179.400 128.200 185.000 128.200 L 190.600 128.200 190.718 125.500 L 190.837 122.800 185.000 122.800 L 179.163 122.800 179.282 125.500 M197.200 125.611 L 197.200 128.422 202.900 128.311 L 208.600 128.200 208.718 125.500 L 208.837 122.800 203.018 122.800 L 197.200 122.800 197.200 125.611 M215.200 125.600 L 215.200 128.400 220.757 128.400 C 227.063 128.400,226.800 128.550,226.800 124.967 L 226.800 122.800 221.000 122.800 L 215.200 122.800 215.200 125.600 M233.043 123.433 C 232.909 123.781,232.800 124.756,232.800 125.600 C 232.800 128.460,232.671 128.400,238.843 128.400 L 244.400 128.400 244.400 125.600 L 244.400 122.800 238.843 122.800 C 234.144 122.800,233.248 122.898,233.043 123.433 M250.882 125.500 L 251.000 128.200 256.700 128.311 L 262.400 128.422 262.400 125.611 L 262.400 122.800 256.582 122.800 L 250.763 122.800 250.882 125.500 M268.882 125.500 L 269.000 128.200 274.700 128.311 L 280.400 128.422 280.400 125.611 L 280.400 122.800 274.582 122.800 L 268.763 122.800 268.882 125.500 M286.882 125.500 L 287.000 128.200 292.600 128.200 L 298.200 128.200 298.318 125.500 L 298.437 122.800 292.600 122.800 L 286.763 122.800 286.882 125.500 M304.800 125.611 L 304.800 128.422 310.500 128.311 L 316.200 128.200 316.318 125.500 L 316.437 122.800 310.618 122.800 L 304.800 122.800 304.800 125.611 M81.067 131.067 C 80.920 131.213,80.800 133.730,80.800 136.659 C 80.800 142.707,80.726 142.591,84.432 142.326 L 86.200 142.200 86.311 136.500 L 86.422 130.800 83.878 130.800 C 82.478 130.800,81.213 130.920,81.067 131.067 M168.182 131.303 C 168.068 131.600,168.026 134.173,168.087 137.021 L 168.200 142.200 170.173 142.325 C 174.160 142.577,174.038 142.767,173.911 136.490 L 173.800 131.000 171.095 130.882 C 169.108 130.795,168.334 130.907,168.182 131.303 M317.867 131.067 C 317.720 131.213,317.600 133.714,317.600 136.624 C 317.600 142.630,317.463 142.400,321.033 142.400 L 323.200 142.400 323.200 136.600 L 323.200 130.800 320.667 130.800 C 319.273 130.800,318.013 130.920,317.867 131.067 M81.300 148.665 C 80.934 148.813,80.800 150.354,80.800 154.433 L 80.800 160.000 83.600 160.000 L 86.400 160.000 86.400 154.443 C 86.400 149.744,86.302 148.848,85.767 148.643 C 85.026 148.358,82.023 148.373,81.300 148.665 M168.437 148.956 C 168.127 149.329,168.012 151.204,168.088 154.656 L 168.200 159.800 171.100 159.918 L 174.000 160.035 174.000 154.698 C 174.000 151.079,173.845 149.205,173.520 148.880 C 172.845 148.205,169.012 148.262,168.437 148.956 M318.080 148.880 C 317.755 149.205,317.600 151.076,317.600 154.680 L 317.600 160.000 320.400 160.000 L 323.200 160.000 323.200 154.200 L 323.200 148.400 320.880 148.400 C 319.604 148.400,318.344 148.616,318.080 148.880 M81.067 166.667 C 80.920 166.813,80.800 169.423,80.800 172.467 L 80.800 178.000 83.600 178.000 L 86.400 178.000 86.400 172.200 L 86.400 166.400 83.867 166.400 C 82.473 166.400,81.213 166.520,81.067 166.667 M168.182 166.903 C 168.068 167.200,168.026 169.773,168.087 172.621 L 168.200 177.800 171.000 177.800 L 173.800 177.800 173.800 172.200 L 173.800 166.600 171.095 166.482 C 169.108 166.395,168.334 166.507,168.182 166.903 M317.775 166.921 C 317.665 167.208,317.626 169.773,317.687 172.621 L 317.800 177.800 320.500 177.918 L 323.200 178.037 323.200 172.218 L 323.200 166.400 320.587 166.400 C 318.810 166.400,317.911 166.567,317.775 166.921 M80.889 190.100 L 81.000 195.800 83.700 195.918 L 86.400 196.037 86.400 190.218 L 86.400 184.400 83.589 184.400 L 80.778 184.400 80.889 190.100 M168.182 184.903 C 168.068 185.200,168.026 187.773,168.087 190.621 L 168.200 195.800 171.000 195.800 L 173.800 195.800 173.800 190.200 L 173.800 184.600 171.095 184.482 C 169.108 184.395,168.334 184.507,168.182 184.903 M317.775 184.921 C 317.665 185.208,317.626 187.773,317.687 190.621 L 317.800 195.800 320.500 195.918 L 323.200 196.037 323.200 190.218 L 323.200 184.400 320.587 184.400 C 318.810 184.400,317.911 184.567,317.775 184.921 M80.889 208.100 L 81.000 213.800 83.700 213.918 L 86.400 214.037 86.400 208.218 L 86.400 202.400 83.589 202.400 L 80.778 202.400 80.889 208.100 M168.089 208.100 L 168.200 213.800 170.173 213.925 C 174.130 214.175,174.000 214.377,174.000 207.992 L 174.000 202.400 170.989 202.400 L 167.978 202.400 168.089 208.100 M317.689 208.100 L 317.800 213.800 320.500 213.918 L 323.200 214.037 323.200 208.218 L 323.200 202.400 320.389 202.400 L 317.578 202.400 317.689 208.100 M71.877 217.056 C 71.725 217.208,71.600 218.467,71.600 219.854 L 71.600 222.374 76.100 222.487 L 80.600 222.600 80.713 227.096 C 80.841 232.188,80.837 232.183,84.432 231.926 L 86.200 231.800 86.311 226.125 L 86.422 220.450 84.911 220.325 C 83.475 220.206,83.390 220.121,83.200 218.600 L 83.000 217.000 77.577 216.889 C 74.595 216.828,72.030 216.903,71.877 217.056 M89.867 217.067 C 89.720 217.213,89.600 218.478,89.600 219.878 L 89.600 222.422 95.300 222.311 L 101.000 222.200 101.122 219.837 C 101.205 218.218,101.080 217.370,100.722 217.143 C 100.102 216.750,90.253 216.681,89.867 217.067 M107.678 217.143 C 107.320 217.370,107.195 218.218,107.278 219.837 L 107.400 222.200 113.200 222.200 L 119.000 222.200 119.122 219.837 C 119.278 216.810,119.281 216.812,113.200 216.812 C 110.450 216.812,107.965 216.961,107.678 217.143 M125.678 217.137 C 125.321 217.368,125.195 218.220,125.278 219.837 L 125.400 222.200 131.119 222.311 L 136.837 222.422 136.719 219.711 L 136.600 217.000 131.400 216.900 C 128.540 216.845,125.965 216.951,125.678 217.137 M143.678 217.137 C 143.321 217.368,143.195 218.220,143.278 219.837 L 143.400 222.200 149.119 222.311 L 154.837 222.422 154.719 219.711 L 154.600 217.000 149.400 216.900 C 146.540 216.845,143.965 216.951,143.678 217.137 M161.477 217.056 C 161.325 217.208,161.200 218.473,161.200 219.867 L 161.200 222.400 164.600 222.400 L 168.000 222.400 168.000 226.957 C 168.000 232.062,167.963 232.000,171.000 232.000 C 174.086 232.000,174.000 232.172,174.000 226.000 C 174.000 221.576,173.886 220.442,173.425 220.265 C 173.101 220.141,172.796 219.381,172.725 218.522 L 172.600 217.000 167.177 216.889 C 164.195 216.828,161.630 216.903,161.477 217.056 M179.477 217.056 C 179.325 217.208,179.200 218.478,179.200 219.878 L 179.200 222.422 184.900 222.311 L 190.600 222.200 190.600 219.600 L 190.600 217.000 185.177 216.889 C 182.195 216.828,179.630 216.903,179.477 217.056 M197.477 217.056 C 197.325 217.208,197.200 218.478,197.200 219.878 L 197.200 222.422 202.900 222.311 L 208.600 222.200 208.600 219.600 L 208.600 217.000 203.177 216.889 C 200.195 216.828,197.630 216.903,197.477 217.056 M215.477 217.056 C 215.325 217.208,215.200 218.478,215.200 219.878 L 215.200 222.422 220.900 222.311 L 226.600 222.200 226.600 219.600 L 226.600 217.000 221.177 216.889 C 218.195 216.828,215.630 216.903,215.477 217.056 M232.965 217.348 C 232.849 217.649,232.810 218.864,232.877 220.048 L 233.000 222.200 238.700 222.311 L 244.400 222.422 244.400 219.611 L 244.400 216.800 238.787 216.800 C 234.406 216.800,233.129 216.920,232.965 217.348 M250.965 217.348 C 250.849 217.649,250.810 218.864,250.877 220.048 L 251.000 222.200 256.700 222.311 L 262.400 222.422 262.400 219.611 L 262.400 216.800 256.787 216.800 C 252.406 216.800,251.129 216.920,250.965 217.348 M269.077 217.056 C 268.925 217.208,268.800 218.473,268.800 219.867 L 268.800 222.400 274.618 222.400 L 280.437 222.400 280.318 219.700 L 280.200 217.000 274.777 216.889 C 271.795 216.828,269.230 216.903,269.077 217.056 M287.077 217.056 C 286.925 217.208,286.800 218.473,286.800 219.867 L 286.800 222.400 292.618 222.400 L 298.437 222.400 298.318 219.700 L 298.200 217.000 292.777 216.889 C 289.795 216.828,287.230 216.903,287.077 217.056 M305.077 217.056 C 304.925 217.208,304.800 218.473,304.800 219.867 L 304.800 222.400 310.618 222.400 L 316.437 222.400 316.318 219.700 L 316.200 217.000 310.777 216.889 C 307.795 216.828,305.230 216.903,305.077 217.056 M322.724 218.488 L 322.600 220.200 320.100 220.319 L 317.600 220.438 317.600 225.976 C 317.600 232.259,317.453 232.000,321.020 232.000 L 323.175 232.000 323.287 227.300 L 323.400 222.600 328.000 222.400 L 332.600 222.200 332.600 219.600 L 332.600 217.000 327.724 216.888 L 322.847 216.776 322.724 218.488 M103.927 321.001 L 103.800 324.802 200.000 324.802 L 296.200 324.802 296.073 321.001 L 295.945 317.200 200.000 317.200 L 104.055 317.200 103.927 321.001 M82.100 325.099 C 86.005 325.165,92.395 325.165,96.300 325.099 C 100.205 325.034,97.010 324.980,89.200 324.980 C 81.390 324.980,78.195 325.034,82.100 325.099 M303.700 325.099 C 307.605 325.165,313.995 325.165,317.900 325.099 C 321.805 325.034,318.610 324.980,310.800 324.980 C 302.990 324.980,299.795 325.034,303.700 325.099 M64.300 360.557 C 63.381 361.254,63.415 361.600,64.400 361.600 C 64.840 361.600,65.200 361.780,65.200 362.000 C 65.200 362.220,65.478 362.400,65.817 362.400 C 66.156 362.400,66.820 362.760,67.292 363.200 C 67.764 363.640,68.387 364.000,68.675 364.000 C 68.964 364.000,69.200 364.180,69.200 364.400 C 69.200 364.620,69.560 364.800,70.000 364.800 C 70.440 364.800,70.800 364.946,70.800 365.125 C 70.800 365.304,71.422 365.695,72.182 365.993 C 72.942 366.291,73.471 366.685,73.358 366.868 C 73.245 367.050,73.523 367.200,73.976 367.200 C 74.429 367.200,74.800 367.336,74.800 367.502 C 74.800 367.669,75.385 368.064,76.100 368.380 C 76.815 368.697,77.749 369.280,78.175 369.678 C 78.602 370.075,79.187 370.400,79.475 370.400 C 79.764 370.400,80.000 370.591,80.000 370.824 C 80.000 371.057,80.165 371.145,80.368 371.020 C 80.570 370.895,80.975 371.029,81.268 371.319 C 81.560 371.608,82.610 372.285,83.600 372.822 C 84.590 373.360,85.460 373.935,85.533 374.100 C 85.607 374.265,85.997 374.400,86.400 374.400 C 86.803 374.400,87.193 374.552,87.267 374.737 C 87.340 374.923,89.065 375.931,91.100 376.978 C 93.135 378.025,94.800 379.043,94.800 379.240 C 94.800 379.438,95.160 379.600,95.600 379.600 C 96.040 379.600,96.400 379.780,96.400 380.000 C 96.400 380.220,96.720 380.400,97.112 380.400 C 97.503 380.400,98.083 380.760,98.400 381.200 C 98.717 381.640,99.297 382.000,99.688 382.000 C 100.080 382.000,100.400 382.180,100.400 382.400 C 100.400 382.620,100.760 382.800,101.200 382.800 C 101.640 382.800,102.000 382.980,102.000 383.200 C 102.000 383.420,102.270 383.600,102.600 383.600 C 102.930 383.600,103.200 383.780,103.200 384.000 C 103.200 384.220,103.470 384.400,103.800 384.400 C 104.130 384.400,104.400 384.580,104.400 384.800 C 104.400 385.020,104.760 385.200,105.200 385.200 C 105.640 385.200,106.000 385.380,106.000 385.600 C 106.000 385.820,106.278 386.000,106.617 386.000 C 106.956 386.000,107.594 386.336,108.034 386.746 C 108.475 387.157,109.682 387.919,110.718 388.441 C 111.753 388.962,112.690 389.499,112.800 389.633 C 113.019 389.899,113.779 390.310,117.874 392.373 C 119.374 393.128,120.660 393.893,120.733 394.073 C 120.807 394.253,121.172 394.400,121.545 394.400 C 121.918 394.400,122.483 394.760,122.800 395.200 C 123.117 395.640,123.652 396.004,123.988 396.009 C 124.325 396.014,125.050 396.370,125.600 396.800 C 126.150 397.230,126.825 397.586,127.100 397.591 C 127.375 397.596,127.600 397.780,127.600 398.000 C 127.600 398.220,127.870 398.400,128.200 398.400 C 128.530 398.400,128.800 398.580,128.800 398.800 C 128.800 399.020,129.070 399.200,129.400 399.200 C 129.730 399.200,130.000 399.380,130.000 399.600 C 130.000 399.820,130.360 400.000,130.800 400.000 C 131.240 400.000,131.600 400.159,131.600 400.353 C 131.600 400.548,131.915 400.807,132.300 400.929 C 132.985 401.146,135.204 402.404,135.600 402.800 C 135.710 402.910,136.070 403.059,136.400 403.130 C 136.730 403.202,137.060 403.427,137.133 403.630 C 137.207 403.834,137.572 404.000,137.945 404.000 C 138.318 404.000,138.883 404.360,139.200 404.800 C 139.517 405.240,140.097 405.600,140.488 405.600 C 140.880 405.600,141.200 405.759,141.200 405.953 C 141.200 406.148,141.515 406.406,141.900 406.528 C 142.285 406.649,143.230 407.097,144.000 407.523 C 144.770 407.950,145.940 408.545,146.600 408.846 C 147.260 409.148,148.091 409.711,148.447 410.097 C 148.803 410.484,149.388 410.800,149.747 410.800 C 150.106 410.800,150.400 410.980,150.400 411.200 C 150.400 411.420,150.745 411.600,151.167 411.600 C 151.588 411.600,151.993 411.735,152.067 411.900 C 152.140 412.065,153.055 412.633,154.100 413.163 C 155.145 413.692,156.000 414.277,156.000 414.463 C 156.000 414.648,156.360 414.800,156.800 414.800 C 157.240 414.800,157.600 414.980,157.600 415.200 C 157.600 415.420,157.870 415.600,158.200 415.600 C 158.530 415.600,158.800 415.780,158.800 416.000 C 158.800 416.220,159.070 416.400,159.400 416.400 C 159.730 416.400,160.000 416.580,160.000 416.800 C 160.000 417.020,160.371 417.200,160.824 417.200 C 161.277 417.200,161.536 417.380,161.400 417.600 C 161.264 417.820,161.508 418.000,161.943 418.000 C 162.378 418.000,162.793 418.135,162.867 418.300 C 163.034 418.676,165.164 419.975,166.100 420.271 C 166.485 420.393,166.800 420.652,166.800 420.847 C 166.800 421.041,167.138 421.200,167.551 421.200 C 167.964 421.200,168.524 421.468,168.796 421.796 C 169.068 422.123,169.450 422.293,169.645 422.172 C 169.840 422.051,170.000 422.121,170.000 422.326 C 170.000 422.531,171.125 423.254,172.500 423.932 C 175.551 425.436,177.356 426.501,177.533 426.900 C 177.607 427.065,177.972 427.200,178.345 427.200 C 178.718 427.200,179.283 427.560,179.600 428.000 C 179.917 428.440,180.597 428.800,181.112 428.800 C 181.634 428.800,181.938 428.977,181.800 429.200 C 181.659 429.428,182.004 429.600,182.600 429.600 C 183.196 429.600,183.541 429.772,183.400 430.000 C 183.264 430.220,183.513 430.400,183.953 430.400 C 184.393 430.400,184.864 430.580,185.000 430.800 C 185.136 431.020,185.687 431.200,186.224 431.200 C 186.761 431.200,187.200 431.380,187.200 431.600 C 187.200 431.820,187.740 432.000,188.400 432.000 C 189.060 432.000,189.600 432.145,189.600 432.322 C 189.600 432.819,192.374 433.000,200.000 433.000 C 207.626 433.000,210.400 432.819,210.400 432.322 C 210.400 432.145,210.940 432.000,211.600 432.000 C 212.260 432.000,212.800 431.820,212.800 431.600 C 212.800 431.380,213.340 431.200,214.000 431.200 C 214.660 431.200,215.200 431.020,215.200 430.800 C 215.200 430.580,215.560 430.400,216.000 430.400 C 216.440 430.400,216.800 430.220,216.800 430.000 C 216.800 429.780,217.171 429.600,217.624 429.600 C 218.077 429.600,218.336 429.420,218.200 429.200 C 218.060 428.973,218.396 428.800,218.976 428.800 C 219.539 428.800,220.000 428.620,220.000 428.400 C 220.000 428.180,220.270 428.000,220.600 428.000 C 220.930 428.000,221.200 427.820,221.200 427.600 C 221.200 427.380,221.470 427.200,221.800 427.200 C 222.130 427.200,222.400 427.054,222.400 426.875 C 222.400 426.696,223.030 426.302,223.800 426.000 C 224.570 425.698,225.200 425.319,225.200 425.157 C 225.200 424.996,225.740 424.745,226.400 424.600 C 227.060 424.455,227.600 424.200,227.600 424.032 C 227.600 423.745,229.469 422.690,230.087 422.629 C 230.245 422.613,230.742 422.285,231.192 421.900 C 231.641 421.515,232.200 421.200,232.433 421.200 C 232.666 421.200,233.129 420.928,233.461 420.596 C 233.793 420.264,234.230 420.095,234.432 420.220 C 234.635 420.345,234.800 420.257,234.800 420.024 C 234.800 419.791,235.036 419.600,235.325 419.600 C 235.613 419.600,236.236 419.240,236.708 418.800 C 237.180 418.360,237.844 418.000,238.183 418.000 C 238.522 418.000,238.800 417.820,238.800 417.600 C 238.800 417.380,239.070 417.200,239.400 417.200 C 239.730 417.200,240.000 417.020,240.000 416.800 C 240.000 416.580,240.236 416.400,240.525 416.400 C 240.813 416.400,241.436 416.040,241.908 415.600 C 242.380 415.160,243.044 414.800,243.383 414.800 C 243.722 414.800,244.000 414.620,244.000 414.400 C 244.000 414.180,244.371 414.000,244.824 414.000 C 245.277 414.000,245.536 413.820,245.400 413.600 C 245.264 413.380,245.489 413.200,245.901 413.200 C 246.312 413.200,247.007 412.885,247.445 412.500 C 248.603 411.482,249.892 410.800,250.661 410.800 C 251.031 410.800,251.220 410.686,251.081 410.547 C 250.870 410.337,253.785 408.667,257.897 406.642 C 258.390 406.399,258.795 406.065,258.797 405.900 C 258.799 405.735,259.145 405.600,259.567 405.600 C 259.988 405.600,260.393 405.465,260.467 405.300 C 260.711 404.750,263.159 403.200,263.784 403.200 C 264.123 403.200,264.400 403.020,264.400 402.800 C 264.400 402.580,264.678 402.400,265.017 402.400 C 265.356 402.400,266.020 402.040,266.492 401.600 C 266.964 401.160,267.587 400.800,267.875 400.800 C 268.164 400.800,268.400 400.620,268.400 400.400 C 268.400 400.180,268.760 400.000,269.200 400.000 C 269.640 400.000,270.000 399.820,270.000 399.600 C 270.000 399.380,270.236 399.200,270.525 399.200 C 270.813 399.200,271.436 398.840,271.908 398.400 C 272.380 397.960,273.044 397.600,273.383 397.600 C 273.722 397.600,274.000 397.420,274.000 397.200 C 274.000 396.980,274.270 396.800,274.600 396.800 C 274.930 396.800,275.200 396.620,275.200 396.400 C 275.200 396.180,275.520 396.000,275.912 396.000 C 276.303 396.000,276.883 395.640,277.200 395.200 C 277.517 394.760,278.097 394.400,278.488 394.400 C 278.880 394.400,279.200 394.220,279.200 394.000 C 279.200 393.780,279.545 393.600,279.967 393.600 C 280.388 393.600,280.793 393.453,280.867 393.273 C 280.940 393.093,282.225 392.354,283.721 391.629 C 285.218 390.905,286.928 389.920,287.521 389.441 C 288.513 388.639,290.162 387.774,290.908 387.662 C 291.077 387.637,291.606 387.253,292.083 386.808 C 292.560 386.364,293.187 386.000,293.475 386.000 C 293.764 386.000,294.000 385.820,294.000 385.600 C 294.000 385.380,294.360 385.200,294.800 385.200 C 295.240 385.200,295.600 385.020,295.600 384.800 C 295.600 384.580,295.836 384.400,296.125 384.400 C 296.413 384.400,297.036 384.040,297.508 383.600 C 297.980 383.160,298.644 382.800,298.983 382.800 C 299.322 382.800,299.600 382.620,299.600 382.400 C 299.600 382.180,299.960 382.000,300.400 382.000 C 300.840 382.000,301.200 381.820,301.200 381.600 C 301.200 381.380,301.470 381.200,301.800 381.200 C 302.130 381.200,302.400 381.020,302.400 380.800 C 302.400 380.580,302.670 380.400,303.000 380.400 C 303.330 380.400,303.600 380.241,303.600 380.047 C 303.600 379.852,303.915 379.590,304.300 379.464 C 304.685 379.338,305.900 378.691,307.000 378.025 C 308.100 377.360,309.810 376.407,310.800 375.908 C 311.790 375.408,312.660 374.865,312.733 374.700 C 312.807 374.535,313.212 374.400,313.633 374.400 C 314.055 374.400,314.400 374.220,314.400 374.000 C 314.400 373.780,314.760 373.600,315.200 373.600 C 315.640 373.600,316.000 373.420,316.000 373.200 C 316.000 372.980,316.236 372.800,316.525 372.800 C 316.813 372.800,317.436 372.440,317.908 372.000 C 318.380 371.560,319.044 371.200,319.383 371.200 C 319.722 371.200,320.000 371.020,320.000 370.800 C 320.000 370.580,320.193 370.400,320.428 370.400 C 320.663 370.400,321.641 369.860,322.600 369.200 C 323.559 368.540,324.537 368.000,324.772 368.000 C 325.007 368.000,325.200 367.820,325.200 367.600 C 325.200 367.380,325.560 367.200,326.000 367.200 C 326.440 367.200,326.800 367.020,326.800 366.800 C 326.800 366.580,327.036 366.400,327.325 366.400 C 327.613 366.400,328.236 366.040,328.708 365.600 C 329.180 365.160,329.844 364.800,330.183 364.800 C 330.522 364.800,330.800 364.620,330.800 364.400 C 330.800 364.180,331.078 364.000,331.417 364.000 C 331.756 364.000,332.420 363.640,332.892 363.200 C 333.364 362.760,333.987 362.400,334.275 362.400 C 334.564 362.400,334.800 362.220,334.800 362.000 C 334.800 361.780,335.166 361.600,335.614 361.600 C 336.304 361.600,336.363 361.478,336.000 360.800 C 335.449 359.771,65.653 359.530,64.300 360.557 " stroke="none" fill="#59b6ec" fill-rule="evenodd"></path><path id="path1" d="M119.600 138.622 C 90.167 144.939,82.467 184.161,107.400 200.762 C 134.198 218.604,168.136 194.587,160.194 163.400 C 155.784 146.080,137.331 134.816,119.600 138.622 M188.480 142.080 C 188.179 142.381,188.000 143.876,188.000 146.080 L 188.000 149.600 245.200 149.600 L 302.400 149.600 302.400 146.080 C 302.400 143.876,302.221 142.381,301.920 142.080 C 301.222 141.382,189.178 141.382,188.480 142.080 M130.554 145.675 C 136.136 147.284,138.383 151.462,137.498 158.585 C 137.434 159.096,137.679 159.424,138.200 159.526 C 141.125 160.099,141.103 165.535,138.167 167.458 C 137.563 167.854,137.110 168.728,136.828 170.041 C 136.330 172.367,135.254 174.599,133.797 176.331 C 132.954 177.332,132.836 177.720,133.178 178.358 C 133.410 178.792,133.600 179.500,133.600 179.931 C 133.600 180.998,134.323 181.200,138.138 181.200 C 145.132 181.200,150.742 185.222,151.829 191.016 C 152.098 192.449,152.021 192.573,149.133 195.346 C 136.447 207.524,116.544 207.267,103.961 194.762 C 101.223 192.041,101.205 191.941,102.826 188.546 C 105.087 183.809,109.691 181.200,115.792 181.200 C 120.556 181.200,121.893 179.012,119.187 175.644 C 117.900 174.042,116.400 170.549,116.400 169.153 C 116.400 168.692,115.946 167.958,115.392 167.522 C 112.861 165.531,112.247 160.690,114.422 159.869 C 115.388 159.505,115.590 159.240,115.391 158.604 C 113.598 152.897,115.795 148.400,120.375 148.400 C 121.990 148.400,122.457 148.240,122.818 147.566 C 123.825 145.685,127.485 144.790,130.554 145.675 M188.267 165.867 C 187.890 166.243,187.946 172.495,188.331 173.102 C 188.584 173.500,196.349 173.583,225.825 173.502 L 263.000 173.400 263.114 169.500 L 263.229 165.600 225.881 165.600 C 205.340 165.600,188.413 165.720,188.267 165.867 M65.486 253.048 C 64.270 254.263,65.468 257.712,67.043 257.532 C 68.894 257.321,68.842 253.063,66.986 252.881 C 66.318 252.816,65.643 252.891,65.486 253.048 M72.267 253.067 C 71.757 253.576,71.993 256.697,72.578 257.182 C 73.999 258.361,74.992 257.547,75.120 255.100 L 75.240 252.800 73.887 252.800 C 73.142 252.800,72.413 252.920,72.267 253.067 M79.279 255.075 C 79.418 257.751,81.642 258.966,82.216 256.680 C 82.822 254.266,82.314 253.009,80.679 252.875 L 79.159 252.749 79.279 255.075 M86.079 255.075 L 86.200 257.400 87.600 257.400 L 89.000 257.400 89.000 255.200 L 89.000 253.000 87.479 252.875 L 85.959 252.749 86.079 255.075 M92.976 253.318 C 92.867 253.602,92.828 256.527,92.889 259.818 L 93.000 265.800 94.500 265.924 L 96.000 266.048 96.000 259.424 L 96.000 252.800 94.587 252.800 C 93.801 252.800,93.087 253.029,92.976 253.318 M99.362 253.354 C 98.625 255.276,99.380 257.400,100.800 257.400 L 102.200 257.400 102.320 255.100 L 102.440 252.800 101.007 252.800 C 100.156 252.800,99.489 253.025,99.362 253.354 M106.169 253.779 C 105.612 256.001,106.294 257.600,107.800 257.600 C 109.256 257.600,109.868 256.312,109.535 253.952 C 109.324 252.463,106.536 252.319,106.169 253.779 M113.279 255.075 L 113.400 257.400 114.800 257.400 L 116.200 257.400 116.200 255.200 L 116.200 253.000 114.679 252.875 L 113.159 252.749 113.279 255.075 M120.172 253.329 C 119.426 255.273,120.172 257.400,121.600 257.400 L 123.000 257.400 123.000 255.200 C 123.000 252.931,120.867 251.519,120.172 253.329 M126.986 253.292 C 126.871 253.591,126.828 256.527,126.889 259.818 L 127.000 265.800 128.510 265.925 L 130.020 266.049 129.910 259.525 L 129.800 253.000 128.497 252.874 C 127.673 252.795,127.118 252.949,126.986 253.292 M133.486 253.048 C 133.137 253.396,133.108 256.094,133.443 256.967 C 133.805 257.910,135.875 257.782,136.409 256.783 C 137.669 254.428,135.227 251.307,133.486 253.048 M140.286 253.048 C 139.222 254.112,140.355 257.600,141.765 257.600 C 144.203 257.600,144.414 253.085,141.986 252.881 C 141.208 252.815,140.443 252.890,140.286 253.048 M147.372 253.329 C 146.673 255.151,147.376 257.398,148.686 257.524 C 150.140 257.665,150.567 256.842,150.329 254.355 C 150.186 252.853,147.864 252.047,147.372 253.329 M154.172 253.329 C 153.426 255.273,154.172 257.400,155.600 257.400 L 157.000 257.400 157.000 255.200 C 157.000 252.931,154.867 251.519,154.172 253.329 M160.976 253.318 C 160.867 253.602,160.828 256.527,160.889 259.818 L 161.000 265.800 162.500 265.924 L 164.000 266.048 164.000 259.424 L 164.000 252.800 162.587 252.800 C 161.801 252.800,161.087 253.029,160.976 253.318 M167.362 253.354 C 166.625 255.276,167.380 257.400,168.800 257.400 L 170.200 257.400 170.320 255.100 L 170.440 252.800 169.007 252.800 C 168.156 252.800,167.489 253.025,167.362 253.354 M174.169 253.779 C 173.612 256.001,174.294 257.600,175.800 257.600 C 177.256 257.600,177.868 256.312,177.535 253.952 C 177.324 252.463,174.536 252.319,174.169 253.779 M181.279 255.075 L 181.400 257.400 182.800 257.400 L 184.200 257.400 184.200 255.200 L 184.200 253.000 182.679 252.875 L 181.159 252.749 181.279 255.075 M188.162 253.354 C 187.425 255.276,188.180 257.400,189.600 257.400 L 191.000 257.400 191.120 255.100 L 191.240 252.800 189.807 252.800 C 188.956 252.800,188.289 253.025,188.162 253.354 M195.086 253.048 C 194.739 253.394,194.701 264.475,195.043 265.367 C 195.198 265.771,195.774 266.000,196.635 266.000 C 198.382 266.000,198.460 265.658,198.315 258.600 L 198.200 253.000 196.786 252.881 C 196.008 252.815,195.243 252.890,195.086 253.048 M201.886 253.048 C 200.732 254.201,201.886 257.600,203.431 257.600 C 205.816 257.600,205.964 253.081,203.586 252.881 C 202.808 252.815,202.043 252.890,201.886 253.048 M208.879 255.075 L 209.000 257.400 210.400 257.400 L 211.800 257.400 211.800 255.200 L 211.800 253.000 210.279 252.875 L 208.759 252.749 208.879 255.075 M215.762 253.354 C 215.025 255.276,215.780 257.400,217.200 257.400 L 218.600 257.400 218.720 255.100 L 218.840 252.800 217.407 252.800 C 216.556 252.800,215.889 253.025,215.762 253.354 M222.686 253.048 C 222.339 253.394,222.320 255.462,222.652 256.700 C 223.083 258.310,225.495 257.969,225.817 256.252 C 226.330 253.516,224.297 251.436,222.686 253.048 M229.600 259.400 L 229.600 266.048 231.100 265.924 L 232.600 265.800 232.600 259.400 L 232.600 253.000 231.100 252.876 L 229.600 252.752 229.600 259.400 M236.000 255.176 L 236.000 257.600 237.392 257.600 C 239.978 257.600,240.081 253.089,237.500 252.876 L 236.000 252.752 236.000 255.176 M242.962 253.354 C 242.225 255.276,242.980 257.400,244.400 257.400 L 245.800 257.400 245.920 255.100 L 246.040 252.800 244.607 252.800 C 243.756 252.800,243.089 253.025,242.962 253.354 M249.867 253.067 C 249.486 253.447,249.548 256.499,249.950 257.132 C 250.940 258.694,252.596 257.480,252.720 255.100 L 252.840 252.800 251.487 252.800 C 250.742 252.800,250.013 252.920,249.867 253.067 M256.686 253.048 C 256.216 253.518,256.363 256.603,256.880 257.120 C 258.361 258.601,260.137 257.063,259.923 254.483 C 259.802 253.019,257.663 252.070,256.686 253.048 M263.486 253.048 C 263.139 253.394,263.101 264.475,263.443 265.367 C 263.598 265.771,264.174 266.000,265.035 266.000 C 266.782 266.000,266.860 265.658,266.715 258.600 L 266.600 253.000 265.186 252.881 C 264.408 252.815,263.643 252.890,263.486 253.048 M270.172 253.329 C 269.555 254.936,270.179 257.398,271.234 257.520 C 272.658 257.686,273.272 256.780,273.124 254.730 C 272.992 252.886,270.750 251.822,270.172 253.329 M276.972 253.329 C 276.226 255.273,276.972 257.400,278.400 257.400 L 279.800 257.400 279.800 255.200 C 279.800 252.931,277.667 251.519,276.972 253.329 M283.762 253.354 C 283.025 255.276,283.780 257.400,285.200 257.400 L 286.600 257.400 286.720 255.100 L 286.840 252.800 285.407 252.800 C 284.556 252.800,283.889 253.025,283.762 253.354 M290.667 253.067 C 290.337 253.397,290.328 255.491,290.652 256.700 C 291.092 258.341,293.495 257.964,293.826 256.203 C 294.339 253.466,292.296 251.438,290.667 253.067 M297.600 259.376 L 297.600 266.000 299.210 266.000 L 300.820 266.000 300.710 259.500 L 300.600 253.000 299.100 252.876 L 297.600 252.752 297.600 259.376 M304.000 255.200 L 304.000 257.648 305.500 257.524 L 307.000 257.400 307.000 255.200 L 307.000 253.000 305.500 252.876 L 304.000 252.752 304.000 255.200 M310.962 253.354 C 310.225 255.276,310.980 257.400,312.400 257.400 L 313.800 257.400 313.920 255.100 L 314.040 252.800 312.607 252.800 C 311.756 252.800,311.089 253.025,310.962 253.354 M317.886 253.048 C 317.537 253.396,317.508 256.094,317.843 256.967 C 318.205 257.910,320.275 257.782,320.809 256.783 C 322.069 254.428,319.627 251.307,317.886 253.048 M324.879 255.075 C 325.008 257.557,326.329 258.531,327.559 257.050 C 328.739 255.628,327.937 253.011,326.279 252.875 L 324.759 252.749 324.879 255.075 M331.886 253.048 C 331.729 253.205,331.600 256.194,331.600 259.691 L 331.600 266.048 333.100 265.924 L 334.600 265.800 334.600 259.400 L 334.600 253.000 333.386 252.881 C 332.718 252.816,332.043 252.891,331.886 253.048 M6.000 324.746 C 6.000 324.996,5.640 325.200,5.200 325.200 C 4.760 325.200,4.400 325.336,4.400 325.502 C 4.400 325.669,3.889 326.031,3.265 326.307 C 2.641 326.583,1.876 327.302,1.565 327.905 C 1.254 328.507,0.766 329.247,0.480 329.549 C 0.070 329.982,-0.015 332.826,0.080 342.995 L 0.200 355.891 2.164 357.746 C 3.244 358.766,4.354 359.600,4.630 359.600 C 4.907 359.600,5.208 359.825,5.300 360.100 C 5.517 360.753,63.901 361.059,64.550 360.410 C 65.123 359.837,335.277 359.837,335.850 360.410 C 336.499 361.059,394.483 360.753,394.700 360.100 C 394.792 359.825,395.093 359.600,395.370 359.600 C 395.646 359.600,396.756 358.766,397.836 357.746 L 399.800 355.891 399.920 342.995 C 400.025 331.769,399.960 330.017,399.420 329.477 C 399.079 329.136,398.800 328.640,398.800 328.375 C 398.800 327.777,396.780 326.001,396.100 326.000 C 395.825 326.000,395.600 325.820,395.600 325.600 C 395.600 325.380,395.240 325.200,394.800 325.200 C 394.360 325.200,394.000 324.996,394.000 324.746 C 394.000 324.416,392.535 324.370,388.626 324.577 C 381.605 324.949,18.395 324.949,11.374 324.577 C 7.465 324.370,6.000 324.416,6.000 324.746 " stroke="none" fill="#dcdce2" fill-rule="evenodd"></path><path id="path2" d="M29.600 33.300 C 29.050 33.795,28.536 34.650,28.459 35.200 C 28.381 35.750,28.174 36.290,27.999 36.400 C 27.533 36.693,27.545 49.919,28.012 50.207 C 28.225 50.339,28.400 50.731,28.400 51.078 C 28.400 51.620,29.245 52.545,31.051 53.981 C 31.298 54.178,35.303 54.359,39.951 54.384 L 48.400 54.428 48.400 43.414 L 48.400 32.400 39.500 32.400 C 30.835 32.401,30.574 32.425,29.600 33.300 M231.200 43.933 C 231.200 49.283,231.183 49.237,232.922 48.765 C 233.625 48.574,237.613 47.584,241.783 46.565 C 250.431 44.452,251.282 44.185,250.400 43.856 C 249.385 43.478,232.183 39.200,231.676 39.200 C 231.335 39.200,231.200 40.539,231.200 43.933 M27.000 72.685 C 26.560 72.791,26.029 73.040,25.820 73.239 C 25.611 73.437,25.131 73.600,24.753 73.600 C 24.376 73.600,24.007 73.735,23.933 73.900 C 23.860 74.065,23.125 74.704,22.300 75.320 C 21.475 75.937,20.800 76.662,20.800 76.932 C 20.800 77.202,20.440 77.683,20.000 78.000 C 19.560 78.317,19.200 78.897,19.200 79.288 C 19.200 79.680,19.020 80.000,18.800 80.000 C 18.580 80.000,18.400 80.529,18.400 81.176 C 18.400 81.823,18.220 82.464,18.000 82.600 C 17.284 83.042,17.476 100.267,18.200 100.545 C 18.731 100.748,18.800 112.612,18.800 203.992 L 18.800 307.209 19.638 308.991 C 20.836 311.540,23.279 314.153,25.492 315.252 L 27.400 316.200 51.200 316.400 L 75.000 316.600 75.114 320.500 L 75.229 324.400 89.214 324.400 L 103.200 324.400 103.200 320.643 C 103.200 317.586,103.318 316.840,103.833 316.643 C 104.660 316.325,295.340 316.325,296.167 316.643 C 296.682 316.840,296.800 317.586,296.800 320.643 L 296.800 324.400 310.786 324.400 L 324.771 324.400 324.886 320.500 L 325.000 316.600 348.800 316.400 C 370.590 316.217,372.729 316.139,374.127 315.483 C 376.475 314.382,379.136 311.689,380.220 309.319 L 381.200 307.176 381.200 204.217 C 381.200 113.230,381.270 101.187,381.800 100.657 C 382.523 99.934,382.715 82.400,382.000 82.400 C 381.780 82.400,381.600 81.860,381.600 81.200 C 381.600 80.540,381.420 80.000,381.200 80.000 C 380.980 80.000,380.800 79.732,380.800 79.405 C 380.800 78.137,376.325 73.600,375.075 73.600 C 374.792 73.600,374.335 73.375,374.060 73.100 C 373.406 72.445,336.400 72.135,336.400 72.785 C 336.400 73.071,293.979 73.200,200.000 73.200 C 109.333 73.200,63.600 73.066,63.600 72.800 C 63.600 72.396,28.656 72.287,27.000 72.685 M86.710 118.900 L 86.600 125.000 85.100 125.124 C 83.611 125.247,83.600 125.261,83.600 127.024 L 83.600 128.800 77.408 128.800 C 70.307 128.800,70.637 129.003,70.876 124.779 L 71.000 122.600 75.700 122.487 L 80.400 122.375 80.400 117.854 C 80.400 112.496,80.191 112.800,83.877 112.800 L 86.821 112.800 86.710 118.900 M174.311 118.900 C 174.379 122.529,174.272 124.800,174.033 124.800 C 173.819 124.800,173.589 125.655,173.522 126.700 L 173.400 128.600 167.100 128.710 L 160.800 128.820 160.800 125.610 L 160.800 122.400 164.200 122.400 L 167.600 122.400 167.600 117.867 C 167.600 112.474,167.409 112.740,171.182 112.885 L 174.200 113.000 174.311 118.900 M323.513 117.687 L 323.625 122.375 328.313 122.487 L 333.000 122.600 333.124 124.779 C 333.360 128.938,333.549 128.800,327.592 128.800 L 322.400 128.800 322.400 127.000 L 322.400 125.200 320.433 125.200 C 319.351 125.200,318.181 125.091,317.833 124.957 C 317.347 124.771,317.199 124.981,317.195 125.857 C 317.180 128.894,317.392 128.800,310.553 128.800 L 304.400 128.800 304.400 125.600 L 304.400 122.400 310.800 122.400 L 317.200 122.400 317.200 117.867 C 317.200 112.497,317.036 112.738,320.583 112.884 L 323.400 113.000 323.513 117.687 M101.600 125.610 L 101.600 128.820 95.300 128.710 L 89.000 128.600 88.879 126.042 C 88.697 122.183,88.310 122.400,95.387 122.400 L 101.600 122.400 101.600 125.610 M119.600 125.610 L 119.600 128.820 113.300 128.710 L 107.000 128.600 106.879 126.042 C 106.697 122.183,106.310 122.400,113.387 122.400 L 119.600 122.400 119.600 125.610 M137.517 125.500 L 137.400 128.600 131.200 128.600 L 125.000 128.600 124.883 125.500 L 124.766 122.400 131.200 122.400 L 137.634 122.400 137.517 125.500 M155.400 125.600 L 155.400 128.600 149.100 128.710 L 142.800 128.820 142.800 125.600 L 142.800 122.380 149.100 122.490 L 155.400 122.600 155.400 125.600 M191.400 125.600 L 191.400 128.600 185.100 128.710 L 178.800 128.820 178.800 125.600 L 178.800 122.380 185.100 122.490 L 191.400 122.600 191.400 125.600 M209.524 124.779 C 209.763 129.003,210.093 128.800,202.992 128.800 L 196.800 128.800 196.800 125.590 L 196.800 122.380 203.100 122.490 L 209.400 122.600 209.524 124.779 M227.200 125.600 L 227.200 128.800 221.000 128.800 L 214.800 128.800 214.800 125.600 L 214.800 122.400 221.000 122.400 L 227.200 122.400 227.200 125.600 M245.117 125.500 L 245.000 128.600 239.030 128.711 C 232.185 128.838,232.415 128.955,232.406 125.367 C 232.398 122.217,231.986 122.400,239.083 122.400 L 245.234 122.400 245.117 125.500 M263.000 125.600 L 263.000 128.600 256.800 128.600 L 250.600 128.600 250.479 126.042 C 250.296 122.151,249.912 122.363,256.891 122.490 L 263.000 122.600 263.000 125.600 M281.000 125.600 L 281.000 128.600 274.800 128.600 L 268.600 128.600 268.479 126.042 C 268.296 122.151,267.912 122.363,274.891 122.490 L 281.000 122.600 281.000 125.600 M299.124 124.779 C 299.365 129.032,299.683 128.837,292.690 128.710 L 286.600 128.600 286.483 125.490 L 286.366 122.380 292.683 122.490 L 299.000 122.600 299.124 124.779 M86.710 136.500 L 86.820 142.800 83.610 142.800 L 80.400 142.800 80.400 136.633 C 80.400 129.623,80.186 130.010,84.000 130.123 L 86.600 130.200 86.710 136.500 M173.911 130.337 C 174.297 130.581,174.395 132.123,174.311 136.630 L 174.200 142.600 171.235 142.719 C 169.134 142.803,168.175 142.687,167.941 142.319 C 167.402 141.469,167.524 131.036,168.080 130.480 C 168.619 129.941,173.114 129.831,173.911 130.337 M323.510 136.500 L 323.620 142.800 320.410 142.800 L 317.200 142.800 317.200 136.633 C 317.200 129.623,316.986 130.010,320.800 130.123 L 323.400 130.200 323.510 136.500 M133.000 137.825 C 134.100 137.964,135.171 138.240,135.380 138.439 C 135.589 138.637,136.176 138.800,136.685 138.800 C 137.194 138.800,137.923 138.959,138.305 139.154 C 138.687 139.349,139.985 139.934,141.189 140.454 C 148.862 143.769,159.600 155.079,159.600 159.846 C 159.600 160.157,159.762 160.723,159.961 161.105 C 160.316 161.789,160.690 163.146,161.559 166.906 C 161.802 167.954,162.000 170.426,162.000 172.400 C 162.000 174.374,161.802 176.846,161.559 177.894 C 160.495 182.499,160.058 183.917,159.153 185.695 C 158.959 186.077,158.800 186.662,158.800 186.995 C 158.800 187.328,158.620 187.600,158.400 187.600 C 158.180 187.600,158.000 187.960,158.000 188.400 C 158.000 188.840,157.820 189.200,157.600 189.200 C 157.380 189.200,157.200 189.390,157.200 189.622 C 157.200 191.079,150.549 198.758,147.966 200.284 C 147.325 200.663,146.800 201.114,146.800 201.286 C 146.800 201.459,146.607 201.600,146.372 201.600 C 146.137 201.600,145.159 202.140,144.200 202.800 C 143.241 203.460,142.209 204.000,141.908 204.000 C 141.607 204.000,141.189 204.159,140.980 204.353 C 140.514 204.787,136.497 206.152,133.841 206.779 C 131.340 207.369,122.163 207.380,119.915 206.795 C 115.606 205.673,114.997 205.461,111.800 203.966 C 109.587 202.931,106.274 200.827,106.067 200.323 C 105.993 200.145,105.719 200.000,105.457 200.000 C 103.948 200.000,97.296 191.800,95.235 187.400 C 93.744 184.216,93.510 183.544,92.426 179.354 C 91.887 177.271,91.868 167.094,92.400 165.328 C 92.620 164.598,92.992 163.325,93.226 162.500 C 93.685 160.887,93.857 160.443,95.188 157.444 C 98.734 149.457,107.546 141.600,115.600 139.243 C 116.590 138.954,117.813 138.555,118.319 138.358 C 118.824 138.161,119.814 137.987,120.519 137.972 C 121.223 137.956,122.160 137.781,122.600 137.582 C 123.404 137.218,129.275 137.355,133.000 137.825 M302.400 145.600 L 302.400 150.000 245.000 150.000 L 187.600 150.000 187.600 145.867 C 187.600 143.593,187.720 141.613,187.867 141.467 C 188.013 141.320,213.843 141.200,245.267 141.200 L 302.400 141.200 302.400 145.600 M86.710 154.500 L 86.820 160.800 83.610 160.800 L 80.400 160.800 80.400 154.667 C 80.400 147.519,80.185 147.936,83.783 148.084 L 86.600 148.200 86.710 154.500 M174.200 154.400 L 174.200 160.600 171.235 160.719 C 167.513 160.868,167.614 161.039,167.606 154.533 C 167.598 147.620,167.421 147.942,171.149 148.084 L 174.200 148.200 174.200 154.400 M323.510 154.500 L 323.620 160.800 320.410 160.800 L 317.200 160.800 317.200 154.667 C 317.200 147.519,316.985 147.936,320.583 148.084 L 323.400 148.200 323.510 154.500 M263.400 169.600 L 263.400 173.800 225.600 173.800 L 187.800 173.800 187.684 170.030 C 187.620 167.957,187.660 166.021,187.772 165.728 C 187.941 165.289,194.605 165.214,225.688 165.298 L 263.400 165.400 263.400 169.600 M86.800 172.417 L 86.800 178.834 83.700 178.717 L 80.600 178.600 80.489 172.818 C 80.348 165.547,80.129 166.000,83.787 166.000 L 86.800 166.000 86.800 172.417 M174.200 172.400 L 174.200 178.600 171.235 178.719 C 167.498 178.869,167.614 179.077,167.606 172.167 C 167.599 165.548,167.369 165.939,171.182 166.085 L 174.200 166.200 174.200 172.400 M323.510 172.300 L 323.400 178.600 320.400 178.600 L 317.400 178.600 317.289 172.818 C 317.148 165.545,316.928 166.000,320.598 166.000 L 323.620 166.000 323.510 172.300 M86.710 190.300 L 86.600 196.600 83.600 196.600 L 80.600 196.600 80.490 190.300 L 80.380 184.000 83.600 184.000 L 86.820 184.000 86.710 190.300 M174.200 190.400 L 174.200 196.600 171.235 196.719 C 167.498 196.869,167.614 197.077,167.606 190.167 C 167.599 183.548,167.369 183.939,171.182 184.085 L 174.200 184.200 174.200 190.400 M323.510 190.300 L 323.400 196.600 320.400 196.600 L 317.400 196.600 317.290 190.300 L 317.180 184.000 320.400 184.000 L 323.620 184.000 323.510 190.300 M302.311 201.500 L 302.200 207.000 281.400 207.000 L 260.600 207.000 260.489 201.500 L 260.377 196.000 281.400 196.000 L 302.423 196.000 302.311 201.500 M86.710 208.300 L 86.600 214.600 84.421 214.724 C 80.197 214.963,80.400 215.293,80.400 208.192 L 80.400 202.000 83.610 202.000 L 86.820 202.000 86.710 208.300 M174.400 207.920 C 174.400 214.811,174.405 214.800,171.000 214.800 C 167.609 214.800,167.600 214.782,167.600 208.187 C 167.600 201.540,167.327 202.000,171.267 202.000 L 174.400 202.000 174.400 207.920 M323.510 208.300 L 323.400 214.600 321.221 214.724 C 316.997 214.963,317.200 215.293,317.200 208.192 L 317.200 202.000 320.410 202.000 L 323.620 202.000 323.510 208.300 M83.070 216.311 C 83.329 216.476,83.599 217.328,83.670 218.205 C 83.794 219.732,83.864 219.805,85.300 219.924 L 86.800 220.048 86.800 226.241 L 86.800 232.434 83.700 232.317 L 80.600 232.200 80.400 227.600 L 80.200 223.000 75.600 222.800 L 71.000 222.600 70.883 219.946 C 70.712 216.082,70.849 215.999,77.329 216.006 C 80.228 216.009,82.812 216.147,83.070 216.311 M100.967 216.243 C 101.471 216.436,101.600 217.134,101.600 219.653 L 101.600 222.820 95.300 222.710 L 89.000 222.600 88.880 219.810 C 88.718 216.061,88.821 216.000,95.244 216.000 C 98.044 216.000,100.619 216.109,100.967 216.243 M119.120 216.480 C 119.406 216.766,119.600 218.144,119.600 219.890 L 119.600 222.820 113.300 222.710 L 107.000 222.600 106.880 219.810 C 106.781 217.527,106.886 216.926,107.456 216.510 C 108.400 215.819,118.434 215.794,119.120 216.480 M136.944 216.510 C 137.514 216.926,137.619 217.527,137.520 219.810 L 137.400 222.600 131.200 222.600 L 125.000 222.600 124.880 219.810 C 124.718 216.065,124.826 216.000,131.200 216.000 C 134.657 216.000,136.467 216.161,136.944 216.510 M154.944 216.510 C 155.514 216.926,155.619 217.527,155.520 219.810 L 155.400 222.600 149.200 222.600 L 143.000 222.600 142.881 219.864 C 142.808 218.191,142.944 216.909,143.230 216.564 C 143.866 215.797,153.906 215.751,154.944 216.510 M172.826 216.414 C 173.392 216.717,173.600 217.255,173.600 218.414 C 173.600 219.286,173.785 220.000,174.010 220.000 C 174.278 220.000,174.382 222.125,174.310 226.100 L 174.200 232.200 171.235 232.319 C 167.563 232.466,167.614 232.539,167.606 227.100 L 167.600 222.800 164.200 222.800 L 160.800 222.800 160.800 219.633 C 160.800 217.474,160.959 216.402,161.300 216.265 C 162.263 215.877,172.059 216.003,172.826 216.414 M190.989 216.646 C 191.481 217.138,191.607 217.921,191.517 219.946 L 191.400 222.600 185.100 222.710 L 178.800 222.820 178.800 219.643 C 178.800 217.476,178.959 216.403,179.300 216.265 C 180.704 215.698,190.356 216.013,190.989 216.646 M208.989 216.646 C 209.481 217.138,209.607 217.921,209.517 219.946 L 209.400 222.600 203.100 222.710 L 196.800 222.820 196.800 219.677 C 196.800 217.948,196.920 216.413,197.067 216.267 C 197.693 215.640,208.321 215.978,208.989 216.646 M226.770 216.564 C 227.056 216.909,227.192 218.191,227.119 219.864 L 227.000 222.600 220.900 222.710 L 214.800 222.821 214.800 219.677 C 214.800 217.948,214.920 216.413,215.067 216.267 C 215.633 215.700,226.278 215.970,226.770 216.564 M244.770 216.564 C 245.056 216.909,245.192 218.191,245.119 219.864 L 245.000 222.600 239.030 222.711 C 232.250 222.837,232.415 222.913,232.406 219.674 C 232.396 215.996,232.389 216.000,238.765 216.000 C 243.042 216.000,244.409 216.128,244.770 216.564 M262.770 216.564 C 263.056 216.909,263.192 218.191,263.119 219.864 L 263.000 222.600 256.800 222.600 L 250.600 222.600 250.481 220.109 C 250.285 216.003,250.290 216.000,256.765 216.000 C 261.042 216.000,262.409 216.128,262.770 216.564 M280.770 216.564 C 281.056 216.909,281.192 218.191,281.119 219.864 L 281.000 222.600 274.800 222.600 L 268.600 222.600 268.481 219.864 C 268.312 215.974,268.269 216.000,274.800 216.000 C 279.047 216.000,280.409 216.129,280.770 216.564 M298.589 216.646 C 299.081 217.138,299.207 217.921,299.117 219.946 L 299.000 222.600 292.800 222.600 L 286.600 222.600 286.481 219.864 C 286.408 218.191,286.544 216.909,286.830 216.564 C 287.559 215.686,297.699 215.757,298.589 216.646 M316.571 216.629 C 316.917 216.974,317.200 217.874,317.200 218.629 L 317.200 220.000 319.778 220.000 L 322.356 220.000 322.478 218.100 L 322.600 216.200 327.479 216.088 C 333.219 215.956,333.314 216.024,333.119 220.109 L 333.000 222.600 328.400 222.800 L 323.800 223.000 323.687 227.717 L 323.574 232.433 320.487 232.317 L 317.400 232.200 317.200 227.600 L 317.000 223.000 310.800 222.800 L 304.600 222.600 304.478 220.217 C 304.251 215.801,303.972 216.000,310.379 216.000 C 314.904 216.000,316.060 216.117,316.571 216.629 M340.304 268.300 L 340.200 286.600 199.900 286.701 L 59.600 286.801 59.600 268.401 L 59.600 250.000 200.004 250.000 L 340.408 250.000 340.304 268.300 " stroke="none" fill="#325379" fill-rule="evenodd"></path><path id="path3" d="M48.400 43.409 L 48.400 54.418 72.300 54.187 C 85.445 54.060,122.300 53.983,154.200 54.017 L 212.200 54.079 221.000 51.834 C 225.840 50.599,230.115 49.489,230.500 49.367 C 231.190 49.149,231.644 38.800,230.964 38.800 C 230.696 38.800,224.121 37.073,217.000 35.131 L 212.200 33.823 172.833 33.611 C 141.847 33.445,133.431 33.294,133.300 32.900 C 133.168 32.504,124.305 32.400,90.767 32.400 L 48.400 32.400 48.400 43.409 M124.932 145.975 C 124.015 146.391,123.064 147.107,122.818 147.566 C 122.457 148.240,121.990 148.400,120.375 148.400 C 115.795 148.400,113.598 152.897,115.391 158.604 C 115.590 159.240,115.388 159.505,114.422 159.869 C 112.247 160.690,112.861 165.531,115.392 167.522 C 115.946 167.958,116.400 168.692,116.400 169.153 C 116.400 170.549,117.900 174.042,119.187 175.644 C 121.893 179.012,120.556 181.200,115.792 181.200 C 109.691 181.200,105.087 183.809,102.826 188.546 C 101.205 191.941,101.223 192.041,103.961 194.762 C 116.544 207.267,136.447 207.524,149.133 195.346 C 152.021 192.573,152.098 192.449,151.829 191.016 C 150.742 185.222,145.132 181.200,138.138 181.200 C 134.323 181.200,133.600 180.998,133.600 179.931 C 133.600 179.500,133.410 178.792,133.178 178.358 C 132.836 177.720,132.954 177.332,133.797 176.331 C 135.254 174.599,136.330 172.367,136.828 170.041 C 137.110 168.728,137.563 167.854,138.167 167.458 C 141.103 165.535,141.125 160.099,138.200 159.526 C 137.679 159.424,137.434 159.096,137.498 158.585 C 138.662 149.222,132.157 142.695,124.932 145.975 M260.489 201.500 L 260.600 207.000 281.400 207.000 L 302.200 207.000 302.311 201.500 L 302.423 196.000 281.400 196.000 L 260.377 196.000 260.489 201.500 M59.600 268.401 L 59.600 286.801 199.900 286.701 L 340.200 286.600 340.304 268.300 L 340.408 250.000 200.004 250.000 L 59.600 250.000 59.600 268.401 M68.200 255.200 C 68.200 257.479,66.538 258.691,65.550 257.132 C 65.138 256.482,65.090 253.443,65.486 253.048 C 66.694 251.839,68.200 253.034,68.200 255.200 M75.120 255.100 C 74.931 258.713,72.000 258.636,72.000 255.018 C 72.000 252.982,72.155 252.800,73.887 252.800 L 75.240 252.800 75.120 255.100 M82.329 254.355 C 82.567 256.842,82.140 257.665,80.686 257.524 C 79.416 257.402,79.399 257.372,79.279 255.075 L 79.159 252.749 80.679 252.875 C 82.086 252.991,82.210 253.102,82.329 254.355 M89.000 255.200 L 89.000 257.400 87.600 257.400 L 86.200 257.400 86.079 255.075 L 85.959 252.749 87.479 252.875 L 89.000 253.000 89.000 255.200 M96.000 259.424 L 96.000 266.048 94.500 265.924 L 93.000 265.800 92.889 259.818 C 92.758 252.795,92.757 252.800,94.587 252.800 L 96.000 252.800 96.000 259.424 M102.320 255.100 L 102.200 257.400 100.800 257.400 C 99.433 257.400,99.397 257.359,99.275 255.654 C 99.099 253.208,99.347 252.800,101.007 252.800 L 102.440 252.800 102.320 255.100 M109.535 253.952 C 109.868 256.312,109.256 257.600,107.800 257.600 C 106.294 257.600,105.612 256.001,106.169 253.779 C 106.536 252.319,109.324 252.463,109.535 253.952 M116.200 255.200 L 116.200 257.400 114.800 257.400 L 113.400 257.400 113.279 255.075 L 113.159 252.749 114.679 252.875 L 116.200 253.000 116.200 255.200 M123.000 255.200 L 123.000 257.400 121.600 257.400 C 120.172 257.400,119.426 255.273,120.172 253.329 C 120.867 251.519,123.000 252.931,123.000 255.200 M129.910 259.525 L 130.020 266.049 128.510 265.925 L 127.000 265.800 126.889 259.818 C 126.758 252.788,126.777 252.709,128.497 252.874 L 129.800 253.000 129.910 259.525 M136.723 254.483 C 136.893 256.526,136.240 257.600,134.829 257.600 C 133.533 257.600,133.200 257.035,133.200 254.834 C 133.200 252.081,136.496 251.753,136.723 254.483 M143.524 254.730 C 143.666 256.703,143.117 257.600,141.765 257.600 C 140.641 257.600,140.000 256.544,140.000 254.693 C 140.000 251.859,143.320 251.894,143.524 254.730 M150.329 254.355 C 150.567 256.842,150.140 257.665,148.686 257.524 C 147.376 257.398,146.673 255.151,147.372 253.329 C 147.864 252.047,150.186 252.853,150.329 254.355 M157.000 255.200 L 157.000 257.400 155.600 257.400 C 154.172 257.400,153.426 255.273,154.172 253.329 C 154.867 251.519,157.000 252.931,157.000 255.200 M164.000 259.424 L 164.000 266.048 162.500 265.924 L 161.000 265.800 160.889 259.818 C 160.758 252.795,160.757 252.800,162.587 252.800 L 164.000 252.800 164.000 259.424 M170.320 255.100 L 170.200 257.400 168.800 257.400 C 167.433 257.400,167.397 257.359,167.275 255.654 C 167.099 253.208,167.347 252.800,169.007 252.800 L 170.440 252.800 170.320 255.100 M177.535 253.952 C 177.868 256.312,177.256 257.600,175.800 257.600 C 174.294 257.600,173.612 256.001,174.169 253.779 C 174.536 252.319,177.324 252.463,177.535 253.952 M184.200 255.200 L 184.200 257.400 182.800 257.400 L 181.400 257.400 181.279 255.075 L 181.159 252.749 182.679 252.875 L 184.200 253.000 184.200 255.200 M191.120 255.100 L 191.000 257.400 189.600 257.400 C 188.233 257.400,188.197 257.359,188.075 255.654 C 187.899 253.208,188.147 252.800,189.807 252.800 L 191.240 252.800 191.120 255.100 M198.315 258.600 C 198.460 265.658,198.382 266.000,196.635 266.000 C 194.856 266.000,194.800 265.789,194.800 259.034 C 194.800 252.705,194.797 252.714,196.786 252.881 L 198.200 253.000 198.315 258.600 M205.124 254.730 C 205.304 257.227,203.558 258.598,202.080 257.120 C 201.563 256.603,201.416 253.518,201.886 253.048 C 202.965 251.969,205.002 253.027,205.124 254.730 M211.800 255.200 L 211.800 257.400 210.400 257.400 L 209.000 257.400 208.879 255.075 L 208.759 252.749 210.279 252.875 L 211.800 253.000 211.800 255.200 M218.720 255.100 L 218.600 257.400 217.200 257.400 C 215.833 257.400,215.797 257.359,215.675 255.654 C 215.499 253.208,215.747 252.800,217.407 252.800 L 218.840 252.800 218.720 255.100 M225.935 253.952 C 226.266 256.292,225.654 257.600,224.229 257.600 C 222.781 257.600,222.416 256.994,222.405 254.567 C 222.396 252.460,225.644 251.895,225.935 253.952 M232.600 259.400 L 232.600 265.800 231.100 265.924 L 229.600 266.048 229.600 259.400 L 229.600 252.752 231.100 252.876 L 232.600 253.000 232.600 259.400 M239.129 254.355 C 239.366 256.830,238.954 257.600,237.392 257.600 L 236.000 257.600 236.000 255.176 L 236.000 252.752 237.500 252.876 C 238.883 252.990,239.010 253.105,239.129 254.355 M245.920 255.100 L 245.800 257.400 244.400 257.400 C 243.033 257.400,242.997 257.359,242.875 255.654 C 242.699 253.208,242.947 252.800,244.607 252.800 L 246.040 252.800 245.920 255.100 M252.720 255.100 C 252.524 258.862,249.620 258.738,249.606 254.967 C 249.599 252.986,249.760 252.800,251.487 252.800 L 252.840 252.800 252.720 255.100 M259.923 254.483 C 260.137 257.063,258.361 258.601,256.880 257.120 C 256.363 256.603,256.216 253.518,256.686 253.048 C 257.663 252.070,259.802 253.019,259.923 254.483 M266.715 258.600 C 266.860 265.658,266.782 266.000,265.035 266.000 C 263.256 266.000,263.200 265.789,263.200 259.034 C 263.200 252.705,263.197 252.714,265.186 252.881 L 266.600 253.000 266.715 258.600 M273.124 254.730 C 273.272 256.780,272.658 257.686,271.234 257.520 C 270.179 257.398,269.555 254.936,270.172 253.329 C 270.750 251.822,272.992 252.886,273.124 254.730 M279.800 255.200 L 279.800 257.400 278.400 257.400 C 276.972 257.400,276.226 255.273,276.972 253.329 C 277.667 251.519,279.800 252.931,279.800 255.200 M286.720 255.100 L 286.600 257.400 285.200 257.400 C 283.833 257.400,283.797 257.359,283.675 255.654 C 283.499 253.208,283.747 252.800,285.407 252.800 L 286.840 252.800 286.720 255.100 M293.836 253.803 C 294.383 255.982,293.698 257.600,292.229 257.600 C 290.781 257.600,290.416 256.994,290.405 254.567 C 290.396 252.455,293.334 251.801,293.836 253.803 M300.710 259.500 L 300.820 266.000 299.210 266.000 L 297.600 266.000 297.600 259.376 L 297.600 252.752 299.100 252.876 L 300.600 253.000 300.710 259.500 M307.000 255.200 L 307.000 257.400 305.500 257.524 L 304.000 257.648 304.000 255.200 L 304.000 252.752 305.500 252.876 L 307.000 253.000 307.000 255.200 M313.920 255.100 L 313.800 257.400 312.400 257.400 C 311.033 257.400,310.997 257.359,310.875 255.654 C 310.699 253.208,310.947 252.800,312.607 252.800 L 314.040 252.800 313.920 255.100 M321.123 254.483 C 321.293 256.526,320.640 257.600,319.229 257.600 C 317.933 257.600,317.600 257.035,317.600 254.834 C 317.600 252.081,320.896 251.753,321.123 254.483 M327.924 254.730 C 328.072 256.780,327.458 257.686,326.034 257.520 C 325.071 257.408,324.992 257.241,324.879 255.075 L 324.759 252.749 326.279 252.875 C 327.764 252.997,327.803 253.041,327.924 254.730 M334.600 259.400 L 334.600 265.800 333.100 265.924 L 331.600 266.048 331.600 259.691 C 331.600 252.759,331.614 252.707,333.386 252.881 L 334.600 253.000 334.600 259.400 " stroke="none" fill="#f89645" fill-rule="evenodd"></path><path id="path4" d="M133.200 32.840 C 133.200 33.428,143.363 33.592,176.200 33.532 L 211.400 33.468 177.600 33.162 C 159.010 32.993,141.415 32.798,138.500 32.728 C 135.585 32.657,133.200 32.708,133.200 32.840 M212.200 34.000 C 212.640 34.189,213.360 34.338,213.800 34.332 C 214.443 34.323,214.404 34.257,213.600 34.000 C 212.232 33.562,211.181 33.562,212.200 34.000 M215.600 34.782 C 215.930 35.005,216.545 35.191,216.967 35.194 C 217.990 35.202,217.671 34.973,216.200 34.644 C 215.324 34.448,215.162 34.485,215.600 34.782 M228.433 38.144 C 228.525 38.223,229.140 38.408,229.800 38.556 C 230.676 38.752,230.838 38.715,230.400 38.418 C 229.860 38.053,228.032 37.798,228.433 38.144 M240.200 41.221 C 245.260 42.520,249.546 43.587,249.724 43.591 C 250.605 43.615,249.439 42.861,248.304 42.673 C 247.077 42.471,245.246 42.043,242.000 41.200 C 238.754 40.357,236.923 39.929,235.696 39.727 C 234.979 39.608,234.294 39.351,234.173 39.156 C 234.052 38.960,233.288 38.813,232.476 38.829 C 231.567 38.848,234.536 39.767,240.200 41.221 M250.600 44.000 C 250.736 44.220,250.772 44.400,250.679 44.400 C 250.587 44.400,247.021 45.277,242.756 46.349 C 238.490 47.420,234.280 48.439,233.400 48.613 C 231.206 49.046,231.132 49.066,230.000 49.564 C 227.831 50.518,244.696 46.664,249.776 45.045 C 251.392 44.530,252.186 43.600,251.010 43.600 C 250.648 43.600,250.464 43.780,250.600 44.000 M220.400 52.000 C 219.576 52.264,219.541 52.326,220.200 52.354 C 220.640 52.373,221.270 52.213,221.600 52.000 C 222.301 51.547,221.814 51.547,220.400 52.000 M217.200 52.800 C 216.376 53.064,216.341 53.126,217.000 53.154 C 217.440 53.173,218.070 53.013,218.400 52.800 C 219.101 52.347,218.614 52.347,217.200 52.800 M214.000 53.600 C 213.176 53.864,213.141 53.926,213.800 53.954 C 214.240 53.973,214.870 53.813,215.200 53.600 C 215.901 53.147,215.414 53.147,214.000 53.600 M108.729 53.900 C 115.620 53.961,126.780 53.961,133.529 53.900 C 140.278 53.838,134.640 53.788,121.000 53.788 C 107.360 53.788,101.838 53.838,108.729 53.900 M178.600 54.431 C 197.135 54.601,211.256 54.578,211.600 54.376 C 211.948 54.172,198.351 54.047,179.200 54.079 L 146.200 54.134 178.600 54.431 M335.931 72.202 C 335.820 72.314,274.500 72.403,199.664 72.401 C 108.963 72.399,63.600 72.531,63.600 72.799 C 63.600 73.066,109.076 73.200,200.000 73.200 C 320.978 73.200,336.400 73.132,336.400 72.600 C 336.400 71.972,336.271 71.863,335.931 72.202 M17.900 132.700 C 17.954 150.465,18.044 197.040,18.100 236.200 L 18.200 307.400 19.268 309.423 C 20.537 311.829,22.019 313.479,24.206 314.922 C 27.617 317.173,27.838 317.191,52.300 317.196 L 74.800 317.200 74.800 321.005 L 74.800 324.810 89.300 324.705 L 103.800 324.600 103.915 320.900 L 104.030 317.200 200.000 317.200 L 295.970 317.200 296.085 320.900 L 296.200 324.600 310.700 324.705 L 325.200 324.810 325.200 321.005 L 325.200 317.200 347.700 317.196 C 366.627 317.192,370.517 317.095,372.194 316.586 C 375.912 315.459,379.153 312.718,380.885 309.238 L 381.800 307.400 382.000 204.000 C 382.110 147.130,382.145 100.515,382.078 100.412 C 381.320 99.238,381.212 112.152,381.206 204.288 L 381.200 307.176 380.220 309.319 C 379.136 311.689,376.475 314.382,374.127 315.483 C 372.729 316.139,370.590 316.217,348.800 316.400 L 325.000 316.600 324.886 320.500 L 324.771 324.400 310.786 324.400 L 296.800 324.400 296.800 320.643 C 296.800 317.586,296.682 316.840,296.167 316.643 C 295.340 316.325,104.660 316.325,103.833 316.643 C 103.318 316.840,103.200 317.586,103.200 320.643 L 103.200 324.400 89.214 324.400 L 75.229 324.400 75.114 320.500 L 75.000 316.600 51.200 316.400 L 27.400 316.200 25.492 315.252 C 23.402 314.214,20.899 311.619,19.741 309.290 C 19.027 307.854,18.993 304.023,18.800 204.233 C 18.668 135.723,18.465 100.622,18.200 100.533 C 17.935 100.445,17.834 111.300,17.900 132.700 M80.667 113.067 C 80.520 113.213,80.400 115.368,80.400 117.854 L 80.400 122.375 75.700 122.487 L 71.000 122.600 70.876 124.779 C 70.637 129.003,70.307 128.800,77.408 128.800 L 83.600 128.800 83.600 127.024 C 83.600 125.261,83.611 125.247,85.100 125.124 L 86.600 125.000 86.710 118.900 L 86.821 112.800 83.877 112.800 C 82.258 112.800,80.813 112.920,80.667 113.067 M167.882 113.051 C 167.727 113.206,167.600 115.373,167.600 117.867 L 167.600 122.400 164.200 122.400 L 160.800 122.400 160.800 125.610 L 160.800 128.820 167.100 128.710 L 173.400 128.600 173.522 126.700 C 173.589 125.655,173.819 124.800,174.033 124.800 C 174.272 124.800,174.379 122.529,174.311 118.900 L 174.200 113.000 171.182 112.885 C 169.522 112.821,168.037 112.896,167.882 113.051 M317.483 113.051 C 317.327 113.206,317.200 115.373,317.200 117.867 L 317.200 122.400 310.800 122.400 L 304.400 122.400 304.400 125.600 L 304.400 128.800 310.553 128.800 C 317.392 128.800,317.180 128.894,317.195 125.857 C 317.199 124.981,317.347 124.771,317.833 124.957 C 318.181 125.091,319.351 125.200,320.433 125.200 L 322.400 125.200 322.400 127.000 L 322.400 128.800 327.592 128.800 C 333.549 128.800,333.360 128.938,333.124 124.779 L 333.000 122.600 328.313 122.487 L 323.625 122.375 323.513 117.687 L 323.400 113.000 320.583 112.884 C 319.033 112.820,317.638 112.895,317.483 113.051 M86.400 118.776 L 86.400 124.352 84.900 124.476 C 83.442 124.597,83.394 124.650,83.200 126.400 L 83.000 128.200 77.400 128.200 L 71.800 128.200 71.682 125.513 L 71.564 122.827 76.082 122.713 L 80.600 122.600 80.706 118.400 C 80.844 112.940,80.689 113.200,83.787 113.200 L 86.400 113.200 86.400 118.776 M173.912 118.555 C 174.001 122.627,173.902 123.845,173.442 124.355 C 173.121 124.710,172.801 125.720,172.730 126.600 L 172.600 128.200 167.000 128.200 L 161.400 128.200 161.282 125.516 L 161.164 122.833 164.482 122.716 L 167.800 122.600 167.906 118.400 C 168.046 112.867,167.875 113.141,171.095 113.282 L 173.800 113.400 173.912 118.555 M323.287 117.900 L 323.400 122.600 328.100 122.713 L 332.800 122.825 332.800 124.980 C 332.800 128.505,332.960 128.400,327.579 128.400 L 322.844 128.400 322.722 126.500 L 322.600 124.600 320.200 124.400 L 317.800 124.200 317.687 119.222 C 317.544 112.926,317.413 113.200,320.575 113.200 L 323.175 113.200 323.287 117.900 M88.967 122.942 C 88.852 123.240,88.813 124.635,88.879 126.042 L 89.000 128.600 95.300 128.710 L 101.600 128.820 101.600 125.610 L 101.600 122.400 95.387 122.400 C 90.529 122.400,89.130 122.518,88.967 122.942 M106.967 122.942 C 106.852 123.240,106.813 124.635,106.879 126.042 L 107.000 128.600 113.300 128.710 L 119.600 128.820 119.600 125.610 L 119.600 122.400 113.387 122.400 C 108.529 122.400,107.130 122.518,106.967 122.942 M124.883 125.500 L 125.000 128.600 131.200 128.600 L 137.400 128.600 137.517 125.500 L 137.634 122.400 131.200 122.400 L 124.766 122.400 124.883 125.500 M142.800 125.600 L 142.800 128.820 149.100 128.710 L 155.400 128.600 155.400 125.600 L 155.400 122.600 149.100 122.490 L 142.800 122.380 142.800 125.600 M178.800 125.600 L 178.800 128.820 185.100 128.710 L 191.400 128.600 191.400 125.600 L 191.400 122.600 185.100 122.490 L 178.800 122.380 178.800 125.600 M196.800 125.590 L 196.800 128.800 202.992 128.800 C 210.093 128.800,209.763 129.003,209.524 124.779 L 209.400 122.600 203.100 122.490 L 196.800 122.380 196.800 125.590 M214.800 125.600 L 214.800 128.800 221.000 128.800 L 227.200 128.800 227.200 125.600 L 227.200 122.400 221.000 122.400 L 214.800 122.400 214.800 125.600 M232.667 122.667 C 232.289 123.045,232.346 127.696,232.737 128.311 C 232.981 128.697,234.523 128.795,239.030 128.711 L 245.000 128.600 245.117 125.500 L 245.234 122.400 239.083 122.400 C 235.701 122.400,232.813 122.520,232.667 122.667 M250.571 122.932 C 250.454 123.236,250.413 124.635,250.479 126.042 L 250.600 128.600 256.800 128.600 L 263.000 128.600 263.000 125.600 L 263.000 122.600 256.891 122.490 C 251.988 122.401,250.741 122.488,250.571 122.932 M268.571 122.932 C 268.454 123.236,268.413 124.635,268.479 126.042 L 268.600 128.600 274.800 128.600 L 281.000 128.600 281.000 125.600 L 281.000 122.600 274.891 122.490 C 269.988 122.401,268.741 122.488,268.571 122.932 M286.483 125.490 L 286.600 128.600 292.690 128.710 C 299.683 128.837,299.365 129.032,299.124 124.779 L 299.000 122.600 292.683 122.490 L 286.366 122.380 286.483 125.490 M101.118 125.500 L 101.000 128.200 95.400 128.200 L 89.800 128.200 89.682 125.500 L 89.563 122.800 95.400 122.800 L 101.237 122.800 101.118 125.500 M119.200 124.967 C 119.200 128.536,119.429 128.400,113.437 128.400 C 107.291 128.400,107.200 128.352,107.200 125.120 L 107.200 122.800 113.200 122.800 L 119.200 122.800 119.200 124.967 M136.718 125.500 L 136.600 128.200 131.456 128.312 C 125.325 128.446,125.200 128.383,125.200 125.151 L 125.200 122.800 131.018 122.800 L 136.837 122.800 136.718 125.500 M154.718 125.500 L 154.600 128.200 149.000 128.200 L 143.400 128.200 143.282 125.500 L 143.163 122.800 149.000 122.800 L 154.837 122.800 154.718 125.500 M190.718 125.500 L 190.600 128.200 185.000 128.200 L 179.400 128.200 179.282 125.500 L 179.163 122.800 185.000 122.800 L 190.837 122.800 190.718 125.500 M208.718 125.500 L 208.600 128.200 202.900 128.311 L 197.200 128.422 197.200 125.611 L 197.200 122.800 203.018 122.800 L 208.837 122.800 208.718 125.500 M226.800 124.967 C 226.800 128.550,227.063 128.400,220.757 128.400 L 215.200 128.400 215.200 125.600 L 215.200 122.800 221.000 122.800 L 226.800 122.800 226.800 124.967 M244.400 125.600 L 244.400 128.400 238.843 128.400 C 232.671 128.400,232.800 128.460,232.800 125.600 C 232.800 122.740,232.671 122.800,238.843 122.800 L 244.400 122.800 244.400 125.600 M262.400 125.611 L 262.400 128.422 256.700 128.311 L 251.000 128.200 250.882 125.500 L 250.763 122.800 256.582 122.800 L 262.400 122.800 262.400 125.611 M280.400 125.611 L 280.400 128.422 274.700 128.311 L 269.000 128.200 268.882 125.500 L 268.763 122.800 274.582 122.800 L 280.400 122.800 280.400 125.611 M298.318 125.500 L 298.200 128.200 292.600 128.200 L 287.000 128.200 286.882 125.500 L 286.763 122.800 292.600 122.800 L 298.437 122.800 298.318 125.500 M316.318 125.500 L 316.200 128.200 310.500 128.311 L 304.800 128.422 304.800 125.611 L 304.800 122.800 310.618 122.800 L 316.437 122.800 316.318 125.500 M80.900 130.257 C 80.531 130.412,80.400 132.079,80.400 136.633 L 80.400 142.800 83.610 142.800 L 86.820 142.800 86.710 136.500 L 86.600 130.200 84.000 130.123 C 82.570 130.081,81.175 130.141,80.900 130.257 M168.080 130.480 C 167.524 131.036,167.402 141.469,167.941 142.319 C 168.175 142.687,169.134 142.803,171.235 142.719 L 174.200 142.600 174.311 136.630 C 174.395 132.123,174.297 130.581,173.911 130.337 C 173.114 129.831,168.619 129.941,168.080 130.480 M317.700 130.257 C 317.331 130.412,317.200 132.079,317.200 136.633 L 317.200 142.800 320.410 142.800 L 323.620 142.800 323.510 136.500 L 323.400 130.200 320.800 130.123 C 319.370 130.081,317.975 130.141,317.700 130.257 M86.311 136.500 L 86.200 142.200 84.432 142.326 C 80.726 142.591,80.800 142.707,80.800 136.659 C 80.800 130.457,80.620 130.800,83.878 130.800 L 86.422 130.800 86.311 136.500 M173.911 136.490 C 174.038 142.767,174.160 142.577,170.173 142.325 L 168.200 142.200 168.087 137.021 C 167.944 130.425,167.791 130.737,171.095 130.882 L 173.800 131.000 173.911 136.490 M323.200 136.600 L 323.200 142.400 321.033 142.400 C 317.463 142.400,317.600 142.630,317.600 136.624 C 317.600 130.463,317.422 130.800,320.667 130.800 L 323.200 130.800 323.200 136.600 M122.600 137.600 C 122.160 137.789,121.223 137.956,120.519 137.972 C 119.814 137.987,118.824 138.161,118.319 138.358 C 117.813 138.555,116.590 138.954,115.600 139.243 C 107.546 141.600,98.734 149.457,95.188 157.444 C 93.857 160.443,93.685 160.887,93.226 162.500 C 92.992 163.325,92.620 164.598,92.400 165.328 C 91.868 167.094,91.887 177.271,92.426 179.354 C 93.510 183.544,93.744 184.216,95.235 187.400 C 97.296 191.800,103.948 200.000,105.457 200.000 C 105.719 200.000,105.993 200.145,106.067 200.323 C 106.274 200.827,109.587 202.931,111.800 203.966 C 114.997 205.461,115.606 205.673,119.915 206.795 C 122.163 207.380,131.340 207.369,133.841 206.779 C 136.497 206.152,140.514 204.787,140.980 204.353 C 141.189 204.159,141.607 204.000,141.908 204.000 C 142.209 204.000,143.241 203.460,144.200 202.800 C 145.159 202.140,146.137 201.600,146.372 201.600 C 146.607 201.600,146.800 201.459,146.800 201.286 C 146.800 201.114,147.325 200.663,147.966 200.284 C 150.549 198.758,157.200 191.079,157.200 189.622 C 157.200 189.390,157.380 189.200,157.600 189.200 C 157.820 189.200,158.000 188.840,158.000 188.400 C 158.000 187.960,158.180 187.600,158.400 187.600 C 158.620 187.600,158.800 187.328,158.800 186.995 C 158.800 186.662,158.959 186.077,159.153 185.695 C 160.058 183.917,160.495 182.499,161.559 177.894 C 161.802 176.846,162.000 174.374,162.000 172.400 C 162.000 170.426,161.802 167.954,161.559 166.906 C 160.690 163.146,160.316 161.789,159.961 161.105 C 159.762 160.723,159.600 160.157,159.600 159.846 C 159.600 155.079,148.862 143.769,141.189 140.454 C 139.985 139.934,138.687 139.349,138.305 139.154 C 137.923 138.959,137.169 138.800,136.629 138.800 C 136.089 138.800,135.536 138.620,135.400 138.400 C 135.264 138.180,134.398 138.009,133.476 138.020 C 132.027 138.037,132.287 138.166,135.400 138.974 C 146.476 141.848,155.187 149.587,159.068 160.000 C 169.986 189.298,140.219 216.793,112.000 203.474 C 79.303 188.042,89.701 139.494,126.000 138.109 C 129.467 137.976,131.478 137.760,131.000 137.572 C 129.925 137.148,123.603 137.169,122.600 137.600 M187.867 141.467 C 187.720 141.613,187.600 143.593,187.600 145.867 L 187.600 150.000 245.100 149.901 L 302.600 149.803 245.300 149.700 L 188.000 149.597 188.000 146.079 C 188.000 143.875,188.179 142.381,188.480 142.080 C 189.196 141.364,301.846 141.384,302.135 142.100 C 302.256 142.399,302.350 142.318,302.368 141.900 C 302.401 141.180,188.584 140.749,187.867 141.467 M80.683 148.251 C 80.527 148.406,80.400 151.293,80.400 154.667 L 80.400 160.800 83.610 160.800 L 86.820 160.800 86.710 154.500 L 86.600 148.200 83.783 148.084 C 82.233 148.020,80.838 148.095,80.683 148.251 M167.849 148.617 C 167.479 149.580,167.559 159.716,167.941 160.319 C 168.175 160.687,169.134 160.803,171.235 160.719 L 174.200 160.600 174.200 154.400 L 174.200 148.200 171.149 148.084 C 168.634 147.988,168.054 148.082,167.849 148.617 M317.483 148.251 C 317.327 148.406,317.200 151.293,317.200 154.667 L 317.200 160.800 320.410 160.800 L 323.620 160.800 323.510 154.500 L 323.400 148.200 320.583 148.084 C 319.033 148.020,317.638 148.095,317.483 148.251 M85.767 148.643 C 86.302 148.848,86.400 149.744,86.400 154.443 L 86.400 160.000 83.600 160.000 L 80.800 160.000 80.800 154.433 C 80.800 150.354,80.934 148.813,81.300 148.665 C 82.023 148.373,85.026 148.358,85.767 148.643 M173.520 148.880 C 173.845 149.205,174.000 151.079,174.000 154.698 L 174.000 160.035 171.100 159.918 L 168.200 159.800 168.088 154.656 C 168.012 151.204,168.127 149.329,168.437 148.956 C 169.012 148.262,172.845 148.205,173.520 148.880 M323.200 154.200 L 323.200 160.000 320.400 160.000 L 317.600 160.000 317.600 154.680 C 317.600 148.486,317.645 148.400,320.880 148.400 L 323.200 148.400 323.200 154.200 M187.772 165.728 C 187.660 166.021,187.620 167.957,187.684 170.030 L 187.800 173.800 225.600 173.800 L 263.400 173.800 263.400 169.600 L 263.400 165.400 225.688 165.298 C 194.605 165.214,187.941 165.289,187.772 165.728 M263.114 169.500 L 263.000 173.400 225.825 173.502 C 196.349 173.583,188.584 173.500,188.331 173.102 C 187.946 172.495,187.890 166.243,188.267 165.867 C 188.413 165.720,205.340 165.600,225.881 165.600 L 263.229 165.600 263.114 169.500 M80.576 166.518 C 80.467 166.804,80.427 169.639,80.489 172.818 L 80.600 178.600 83.700 178.717 L 86.800 178.834 86.800 172.417 L 86.800 166.000 83.787 166.000 C 81.689 166.000,80.715 166.157,80.576 166.518 M167.882 166.251 C 167.486 166.647,167.540 177.687,167.941 178.319 C 168.175 178.687,169.134 178.803,171.235 178.719 L 174.200 178.600 174.200 172.400 L 174.200 166.200 171.182 166.085 C 169.522 166.021,168.037 166.096,167.882 166.251 M317.376 166.518 C 317.267 166.804,317.227 169.639,317.289 172.818 L 317.400 178.600 320.400 178.600 L 323.400 178.600 323.510 172.300 L 323.620 166.000 320.598 166.000 C 318.491 166.000,317.515 166.157,317.376 166.518 M86.400 172.200 L 86.400 178.000 83.600 178.000 L 80.800 178.000 80.800 172.467 C 80.800 166.036,80.616 166.400,83.867 166.400 L 86.400 166.400 86.400 172.200 M173.800 172.200 L 173.800 177.800 171.000 177.800 L 168.200 177.800 168.087 172.621 C 167.944 166.025,167.791 166.337,171.095 166.482 L 173.800 166.600 173.800 172.200 M323.200 172.218 L 323.200 178.037 320.500 177.918 L 317.800 177.800 317.687 172.621 C 317.546 166.098,317.405 166.400,320.587 166.400 L 323.200 166.400 323.200 172.218 M80.490 190.300 L 80.600 196.600 83.600 196.600 L 86.600 196.600 86.710 190.300 L 86.820 184.000 83.600 184.000 L 80.380 184.000 80.490 190.300 M167.882 184.251 C 167.486 184.647,167.540 195.687,167.941 196.319 C 168.175 196.687,169.134 196.803,171.235 196.719 L 174.200 196.600 174.200 190.400 L 174.200 184.200 171.182 184.085 C 169.522 184.021,168.037 184.096,167.882 184.251 M317.290 190.300 L 317.400 196.600 320.400 196.600 L 323.400 196.600 323.510 190.300 L 323.620 184.000 320.400 184.000 L 317.180 184.000 317.290 190.300 M86.400 190.218 L 86.400 196.037 83.700 195.918 L 81.000 195.800 80.889 190.100 L 80.778 184.400 83.589 184.400 L 86.400 184.400 86.400 190.218 M173.800 190.200 L 173.800 195.800 171.000 195.800 L 168.200 195.800 168.087 190.621 C 167.944 184.025,167.791 184.337,171.095 184.482 L 173.800 184.600 173.800 190.200 M323.200 190.218 L 323.200 196.037 320.500 195.918 L 317.800 195.800 317.687 190.621 C 317.546 184.098,317.405 184.400,320.587 184.400 L 323.200 184.400 323.200 190.218 M80.400 208.192 C 80.400 215.293,80.197 214.963,84.421 214.724 L 86.600 214.600 86.710 208.300 L 86.820 202.000 83.610 202.000 L 80.400 202.000 80.400 208.192 M167.867 202.267 C 167.368 202.765,167.564 213.804,168.080 214.320 C 168.348 214.588,169.636 214.800,171.000 214.800 C 174.405 214.800,174.400 214.811,174.400 207.920 L 174.400 202.000 171.267 202.000 C 169.543 202.000,168.013 202.120,167.867 202.267 M317.200 208.192 C 317.200 215.293,316.997 214.963,321.221 214.724 L 323.400 214.600 323.510 208.300 L 323.620 202.000 320.410 202.000 L 317.200 202.000 317.200 208.192 M86.400 208.218 L 86.400 214.037 83.700 213.918 L 81.000 213.800 80.889 208.100 L 80.778 202.400 83.589 202.400 L 86.400 202.400 86.400 208.218 M174.000 207.992 C 174.000 214.377,174.130 214.175,170.173 213.925 L 168.200 213.800 168.089 208.100 L 167.978 202.400 170.989 202.400 L 174.000 202.400 174.000 207.992 M323.200 208.218 L 323.200 214.037 320.500 213.918 L 317.800 213.800 317.689 208.100 L 317.578 202.400 320.389 202.400 L 323.200 202.400 323.200 208.218 M71.411 216.646 C 70.919 217.138,70.793 217.921,70.883 219.946 L 71.000 222.600 75.600 222.800 L 80.200 223.000 80.400 227.600 L 80.600 232.200 83.700 232.317 L 86.800 232.434 86.800 226.241 L 86.800 220.048 85.300 219.924 C 83.864 219.805,83.794 219.732,83.670 218.205 C 83.599 217.328,83.329 216.476,83.070 216.311 C 82.061 215.670,72.102 215.955,71.411 216.646 M89.456 216.510 C 88.886 216.926,88.781 217.527,88.880 219.810 L 89.000 222.600 95.300 222.710 L 101.600 222.820 101.600 219.653 C 101.600 217.134,101.471 216.436,100.967 216.243 C 99.704 215.758,90.182 215.979,89.456 216.510 M107.456 216.510 C 106.886 216.926,106.781 217.527,106.880 219.810 L 107.000 222.600 113.300 222.710 L 119.600 222.820 119.600 219.890 C 119.600 218.144,119.406 216.766,119.120 216.480 C 118.434 215.794,108.400 215.819,107.456 216.510 M125.456 216.510 C 124.886 216.926,124.781 217.527,124.880 219.810 L 125.000 222.600 131.200 222.600 L 137.400 222.600 137.520 219.810 C 137.682 216.065,137.574 216.000,131.200 216.000 C 127.743 216.000,125.933 216.161,125.456 216.510 M143.230 216.564 C 142.944 216.909,142.808 218.191,142.881 219.864 L 143.000 222.600 149.200 222.600 L 155.400 222.600 155.520 219.810 C 155.619 217.527,155.514 216.926,154.944 216.510 C 153.906 215.751,143.866 215.797,143.230 216.564 M161.300 216.265 C 160.959 216.402,160.800 217.474,160.800 219.633 L 160.800 222.800 164.200 222.800 L 167.600 222.800 167.606 227.100 C 167.614 232.539,167.563 232.466,171.235 232.319 L 174.200 232.200 174.310 226.100 C 174.382 222.125,174.278 220.000,174.010 220.000 C 173.785 220.000,173.600 219.286,173.600 218.414 C 173.600 217.255,173.392 216.717,172.826 216.414 C 172.059 216.003,162.263 215.877,161.300 216.265 M179.300 216.265 C 178.959 216.403,178.800 217.476,178.800 219.643 L 178.800 222.820 185.100 222.710 L 191.400 222.600 191.517 219.946 C 191.688 216.075,191.553 215.993,185.071 216.032 C 182.172 216.049,179.575 216.154,179.300 216.265 M197.067 216.267 C 196.920 216.413,196.800 217.948,196.800 219.677 L 196.800 222.820 203.100 222.710 L 209.400 222.600 209.517 219.946 C 209.689 216.064,209.580 216.000,202.838 216.000 C 199.810 216.000,197.213 216.120,197.067 216.267 M215.067 216.267 C 214.920 216.413,214.800 217.948,214.800 219.677 L 214.800 222.821 220.900 222.710 L 227.000 222.600 227.119 219.864 C 227.288 215.975,227.329 216.000,220.818 216.000 C 217.801 216.000,215.213 216.120,215.067 216.267 M232.814 216.774 C 232.325 217.687,232.271 221.577,232.737 222.311 C 232.981 222.697,234.523 222.795,239.030 222.711 L 245.000 222.600 245.119 219.864 C 245.289 215.971,245.336 216.000,238.765 216.000 C 233.700 216.000,233.193 216.066,232.814 216.774 M250.795 216.809 C 250.557 217.254,250.416 218.739,250.481 220.109 L 250.600 222.600 256.800 222.600 L 263.000 222.600 263.119 219.864 C 263.289 215.971,263.336 216.000,256.765 216.000 C 251.617 216.000,251.198 216.057,250.795 216.809 M268.830 216.564 C 268.544 216.909,268.408 218.191,268.481 219.864 L 268.600 222.600 274.800 222.600 L 281.000 222.600 281.119 219.864 C 281.288 215.974,281.331 216.000,274.800 216.000 C 270.553 216.000,269.191 216.129,268.830 216.564 M286.830 216.564 C 286.544 216.909,286.408 218.191,286.481 219.864 L 286.600 222.600 292.800 222.600 L 299.000 222.600 299.117 219.946 C 299.288 216.079,299.157 216.000,292.620 216.000 C 288.528 216.000,287.190 216.130,286.830 216.564 M304.585 216.917 C 304.459 217.421,304.410 218.906,304.478 220.217 L 304.600 222.600 310.800 222.800 L 317.000 223.000 317.200 227.600 L 317.400 232.200 320.487 232.317 L 323.574 232.433 323.687 227.717 L 323.800 223.000 328.400 222.800 L 333.000 222.600 333.119 220.109 C 333.314 216.024,333.219 215.956,327.479 216.088 L 322.600 216.200 322.478 218.100 L 322.356 220.000 319.778 220.000 L 317.200 220.000 317.200 218.629 C 317.200 216.220,316.630 216.000,310.379 216.000 C 304.913 216.000,304.811 216.016,304.585 216.917 M83.200 218.600 C 83.390 220.121,83.475 220.206,84.911 220.325 L 86.422 220.450 86.311 226.125 L 86.200 231.800 84.432 231.926 C 80.837 232.183,80.841 232.188,80.713 227.096 L 80.600 222.600 76.100 222.487 L 71.600 222.374 71.600 219.854 C 71.600 216.604,71.285 216.761,77.577 216.889 L 83.000 217.000 83.200 218.600 M100.722 217.143 C 101.080 217.370,101.205 218.218,101.122 219.837 L 101.000 222.200 95.300 222.311 L 89.600 222.422 89.600 219.878 C 89.600 218.478,89.720 217.213,89.867 217.067 C 90.253 216.681,100.102 216.750,100.722 217.143 M118.722 217.143 C 119.080 217.370,119.205 218.218,119.122 219.837 L 119.000 222.200 113.200 222.200 L 107.400 222.200 107.278 219.837 C 107.122 216.810,107.119 216.812,113.200 216.812 C 115.950 216.812,118.435 216.961,118.722 217.143 M136.719 219.711 L 136.837 222.422 131.119 222.311 L 125.400 222.200 125.278 219.837 C 125.121 216.783,125.129 216.779,131.400 216.900 L 136.600 217.000 136.719 219.711 M154.719 219.711 L 154.837 222.422 149.119 222.311 L 143.400 222.200 143.278 219.837 C 143.121 216.783,143.129 216.779,149.400 216.900 L 154.600 217.000 154.719 219.711 M172.725 218.522 C 172.796 219.381,173.101 220.141,173.425 220.265 C 173.886 220.442,174.000 221.576,174.000 226.000 C 174.000 232.172,174.086 232.000,171.000 232.000 C 167.963 232.000,168.000 232.062,168.000 226.957 L 168.000 222.400 164.600 222.400 L 161.200 222.400 161.200 219.867 C 161.200 216.603,160.883 216.761,167.177 216.889 L 172.600 217.000 172.725 218.522 M190.600 219.600 L 190.600 222.200 184.900 222.311 L 179.200 222.422 179.200 219.878 C 179.200 216.601,178.881 216.761,185.177 216.889 L 190.600 217.000 190.600 219.600 M208.600 219.600 L 208.600 222.200 202.900 222.311 L 197.200 222.422 197.200 219.878 C 197.200 216.601,196.881 216.761,203.177 216.889 L 208.600 217.000 208.600 219.600 M226.600 219.600 L 226.600 222.200 220.900 222.311 L 215.200 222.422 215.200 219.878 C 215.200 216.601,214.881 216.761,221.177 216.889 L 226.600 217.000 226.600 219.600 M244.400 219.611 L 244.400 222.422 238.700 222.311 L 233.000 222.200 232.877 220.048 C 232.685 216.669,232.446 216.800,238.787 216.800 L 244.400 216.800 244.400 219.611 M262.400 219.611 L 262.400 222.422 256.700 222.311 L 251.000 222.200 250.877 220.048 C 250.685 216.669,250.446 216.800,256.787 216.800 L 262.400 216.800 262.400 219.611 M280.318 219.700 L 280.437 222.400 274.618 222.400 L 268.800 222.400 268.800 219.867 C 268.800 216.603,268.483 216.761,274.777 216.889 L 280.200 217.000 280.318 219.700 M298.318 219.700 L 298.437 222.400 292.618 222.400 L 286.800 222.400 286.800 219.867 C 286.800 216.603,286.483 216.761,292.777 216.889 L 298.200 217.000 298.318 219.700 M316.318 219.700 L 316.437 222.400 310.618 222.400 L 304.800 222.400 304.800 219.867 C 304.800 216.603,304.483 216.761,310.777 216.889 L 316.200 217.000 316.318 219.700 M332.600 219.600 L 332.600 222.200 328.000 222.400 L 323.400 222.600 323.287 227.300 L 323.175 232.000 321.020 232.000 C 317.453 232.000,317.600 232.259,317.600 225.976 L 317.600 220.438 320.100 220.319 L 322.600 220.200 322.724 218.488 L 322.847 216.776 327.724 216.888 L 332.600 217.000 332.600 219.600 " stroke="none" fill="#4c8cb9" fill-rule="evenodd"></path></g></svg>