<svg id="Icon-Hintergrund" xmlns="http://www.w3.org/2000/svg" viewBox="0 0 500 500"><defs><style>.cls-1{fill:none;stroke:#000;stroke-miterlimit:10;stroke-width:10px;}.cls-2{fill:#fff;}</style></defs><title>icons-round-Zeichenfläche 3</title><g id="Ebene_7" data-name="Ebene 7"><circle class="cls-1" cx="251.5" cy="250.5" r="215.5"/></g><g id="Monitor"><rect x="113.69" y="143" width="285" height="224" rx="20"/><rect class="cls-2" x="125.19" y="157" width="262" height="173"/><circle class="cls-2" cx="256.13" cy="346" r="9"/></g><path d="M192.83,239l-23.41,8.58,23.41,8.51v8.79l-33.47-12.73V243l33.47-12.73Z"/><path d="M221.39,270.75a6.64,6.64,0,0,1-2-4.92,6.39,6.39,0,0,1,2-4.89,7.25,7.25,0,0,1,9.7,0,6.43,6.43,0,0,1,2,4.89,6.68,6.68,0,0,1-2,4.92,7,7,0,0,1-9.7,0Z"/><path d="M239.81,270.75a6.68,6.68,0,0,1-2-4.92,6.43,6.43,0,0,1,2-4.89,7.25,7.25,0,0,1,9.7,0,6.39,6.39,0,0,1,2,4.89,6.86,6.86,0,0,1-11.67,4.92Z"/><path d="M258.23,270.75a6.68,6.68,0,0,1-2-4.92,6.43,6.43,0,0,1,2-4.89,7.27,7.27,0,0,1,9.71,0,6.43,6.43,0,0,1,2,4.89,6.68,6.68,0,0,1-2,4.92,7,7,0,0,1-9.71,0Z"/><path d="M313.08,212.94h9.78l-23.21,66.25h-9.77Z"/><path d="M357.6,243v9.14l-33.47,12.73v-8.79l23.41-8.51L324.13,239v-8.72Z"/></svg>