<svg xmlns="http://www.w3.org/2000/svg" viewBox="0 0 500 500"><defs><style>.cls-1{fill:none;stroke:#000;stroke-width:10px;}.cls-1,.cls-3{stroke-miterlimit:10;}.cls-2{fill:#fff;}.cls-3{stroke:#fff;}</style></defs><title>icons-round-Zeichenfläche 1</title><g id="Ebene_2" data-name="Ebene 2"><circle class="cls-1" cx="245.5" cy="250.5" r="215.5"/><g id="Monitor"><rect x="104.16" y="143" width="285" height="224" rx="20"/><rect class="cls-2" x="115.19" y="157" width="262" height="173"/><circle class="cls-2" cx="246.66" cy="346" r="9"/></g><g id="Stift"><path d="M225,313.72s-37.31-6.22-32.78-16.39a11.64,11.64,0,0,1,1-1.85,6.41,6.41,0,0,0,1.44-.48l9.28-4.42a5.47,5.47,0,0,0,.93-.56,27.48,27.48,0,0,1,6.55.52s4,12.44,7.35,16.4S225,313.72,225,313.72Z"/><path d="M206.81,286.87c-5.19.22-11.5,1.73-15.17,7.11a8.5,8.5,0,0,1-9.41-4.63L133.45,187a8.49,8.49,0,0,1,4-11.28L149.53,170a8.48,8.48,0,0,1,11.28,4l48.78,102.32A8.47,8.47,0,0,1,206.81,286.87Z"/></g><g id="Fenster"><rect class="cls-3" x="247" y="197" width="115" height="109" rx="12"/><path class="cls-3" d="M362,218v76a12,12,0,0,1-12,12H259a12,12,0,0,1-12-12V218Z"/></g></g></svg>